<?xml version="1.0" encoding="utf-8"?>
<!-- Generator: Adobe Illustrator 21.0.0, SVG Export Plug-In . SVG Version: 6.00 Build 0)  -->
<svg version="1.1" id="Layer_1" xmlns="http://www.w3.org/2000/svg" xmlns:xlink="http://www.w3.org/1999/xlink" x="0px" y="0px"
	 viewBox="0 0 973.9 158.7" style="enable-background:new 0 0 973.9 158.7;" xml:space="preserve">
<style type="text/css">
	.st0{fill:none;stroke:#FFFFFF;stroke-width:3;}
	.st1{fill:#FFFFFF;}
</style>
<line class="st0" x1="542.9" y1="-0.5" x2="542.9" y2="134.2"/>
<g>
	<path class="st1" d="M600.1,134.2h-26.6V97.4h26.6v7.1h-17.2v6.3h15.9v7.1h-15.9v9.1h17.2V134.2z"/>
	<path class="st1" d="M641.5,134.2h-9.1l-15.6-25.2v25.2H608V97.4h11.3l13.4,21.1V97.4h8.7V134.2z"/>
	<path class="st1" d="M683.4,132.1c-1.6,0.6-3.8,1.3-6.5,1.9c-2.7,0.6-5.4,1-8.1,1c-6.3,0-11.2-1.7-14.7-5.1
		c-3.5-3.4-5.3-8.1-5.3-14.1c0-5.7,1.8-10.3,5.4-13.8c3.6-3.5,8.6-5.2,14.9-5.2c2.4,0,4.7,0.2,6.9,0.7c2.2,0.4,4.6,1.3,7.3,2.6v8.6
		h-1.1c-0.5-0.3-1.1-0.8-2-1.5c-0.9-0.6-1.7-1.2-2.6-1.6c-1-0.5-2.1-1-3.3-1.4c-1.3-0.4-2.6-0.6-4.1-0.6c-1.7,0-3.2,0.2-4.6,0.7
		s-2.6,1.3-3.7,2.3c-1,1-1.9,2.2-2.5,3.8c-0.6,1.5-0.9,3.3-0.9,5.3c0,4.1,1.1,7.2,3.2,9.3c2.2,2.2,5.3,3.2,9.6,3.2
		c0.4,0,0.8,0,1.2,0s0.8,0,1.2-0.1v-7.2h-7.3v-6.9h17V132.1z"/>
	<path class="st1" d="M711.8,134.2h-21.5v-6.5h6v-23.7h-6v-6.5h21.5v6.5h-6v23.7h6V134.2z"/>
	<path class="st1" d="M752.9,134.2h-9.1l-15.6-25.2v25.2h-8.7V97.4h11.3l13.4,21.1V97.4h8.7V134.2z"/>
	<path class="st1" d="M788.9,134.2h-26.6V97.4h26.6v7.1h-17.2v6.3h15.9v7.1h-15.9v9.1h17.2V134.2z"/>
	<path class="st1" d="M823.5,134.2h-26.6V97.4h26.6v7.1h-17.2v6.3h15.9v7.1h-15.9v9.1h17.2V134.2z"/>
	<path class="st1" d="M866.8,134.2h-11.6l-10-13.5h-4.4v13.5h-9.4V97.4h15.9c2.2,0,4,0.1,5.6,0.4c1.6,0.2,3,0.8,4.4,1.6
		c1.4,0.8,2.5,1.9,3.3,3.2s1.2,3,1.2,4.9c0,2.7-0.6,4.9-1.9,6.6s-3.1,3.1-5.4,4.3L866.8,134.2z M852,108.7c0-0.9-0.2-1.7-0.6-2.4
		s-1-1.2-2-1.6c-0.6-0.3-1.4-0.4-2.2-0.5s-1.9-0.1-3-0.1h-3.4v9.9h2.9c1.5,0,2.8-0.1,3.8-0.2c1-0.1,1.9-0.5,2.6-1
		c0.7-0.5,1.1-1.1,1.4-1.7C851.9,110.5,852,109.7,852,108.7z"/>
	<path class="st1" d="M890.8,134.2h-21.5v-6.5h6v-23.7h-6v-6.5h21.5v6.5h-6v23.7h6V134.2z"/>
	<path class="st1" d="M932,134.2h-9.1l-15.6-25.2v25.2h-8.7V97.4h11.3l13.4,21.1V97.4h8.7V134.2z"/>
	<path class="st1" d="M973.9,132.1c-1.6,0.6-3.8,1.3-6.5,1.9s-5.4,1-8.1,1c-6.3,0-11.2-1.7-14.7-5.1c-3.5-3.4-5.3-8.1-5.3-14.1
		c0-5.7,1.8-10.3,5.4-13.8c3.6-3.5,8.6-5.2,14.9-5.2c2.4,0,4.7,0.2,6.9,0.7c2.2,0.4,4.6,1.3,7.3,2.6v8.6h-1.1
		c-0.5-0.3-1.1-0.8-2-1.5c-0.9-0.6-1.7-1.2-2.6-1.6c-1-0.5-2.1-1-3.3-1.4c-1.3-0.4-2.6-0.6-4.1-0.6c-1.7,0-3.2,0.2-4.6,0.7
		s-2.6,1.3-3.7,2.3c-1,1-1.9,2.2-2.5,3.8c-0.6,1.5-0.9,3.3-0.9,5.3c0,4.1,1.1,7.2,3.2,9.3c2.2,2.2,5.3,3.2,9.6,3.2
		c0.4,0,0.8,0,1.2,0s0.8,0,1.2-0.1v-7.2H957v-6.9h17V132.1z"/>
</g>
<polygon class="st1" points="23.9,0 0,23.9 0,158.7 422.1,158.7 446,134.8 446,0 "/>
<polygon points="259.9,27.2 259.9,23.7 248.3,23.7 248.3,45.8 260.2,45.8 260.2,42.3 251.8,42.3 251.8,36.4 259.6,36.4 259.6,32.9 
	251.8,32.9 251.8,27.2 "/>
<path d="M178.8,46.1c2.9,0,5.1-0.8,6.7-2.5c1.5-1.6,2.2-3.8,2.2-6.6V23.7h-3.5v12.8c0,2.3-0.3,3.5-1.1,4.4c-0.5,0.6-1.8,1.6-4.2,1.6
	c-1.6,0-2.8-0.6-3.9-1.7c-0.8-0.9-1.1-1.9-1.1-4.1v-13l-3.5,0v13.7c0,2.8,0.9,5.1,2.6,6.6C174.5,45.4,176.6,46.1,178.8,46.1z"/>
<path d="M211.4,45.8V23.7H208c0,0,0,15.3,0,15.8c-0.3-0.4-12.5-15.8-12.5-15.8h-2.8v22.1h3.4c0,0,0-15.2,0-15.7
	c0.3,0.4,12.3,15.7,12.3,15.7H211.4z"/>
<path d="M243.2,23.7h-3.5c0,0-5.3,13.9-5.5,14.3c-0.2-0.4-5.5-14.3-5.5-14.3h-3.6l8.6,22.3l1.1,0L243.2,23.7z"/>
<path d="M276.7,45.8h4.2l-0.6-0.9c-1.2-1.8-1.6-2.5-2.4-3.9c-0.7-1.2-1.4-2.5-2.1-3.5c-0.6-0.9-1.2-1.6-1.9-2.2
	c1.9-1.1,2.9-2.9,2.9-5.3c0-1.9-0.6-3.5-1.8-4.7c-1.2-1.1-2.9-1.7-4.9-1.7H265v22.1l3.5,0c0,0,0-9.1,0-9.3c0.1,0,0.8,0,0.8,0
	c1.2,0,2.3,0.3,4.8,4.7L276.7,45.8z M273.3,30c0,0.9-0.3,1.6-0.7,2.1c-0.6,0.6-1.5,0.9-2.7,0.9c0,0-1.2,0-1.4,0c0-0.2,0-5.8,0-5.9
	c0.2,0,1.4,0,1.4,0C272.2,27.1,273.3,28,273.3,30C273.3,30,273.3,30,273.3,30z"/>
<path d="M290.6,27.2c1.5,0,2.9,0.7,4.2,2.1l0.5,0.5l0.2,0.2v-4.6l0,0l-0.1-0.1c-1.4-1-3-1.6-4.5-1.6c-1.8,0-3.4,0.6-4.5,1.7
	c-1.1,1.1-1.7,2.6-1.7,4.4c0,3.1,2.1,4.8,4.3,6.2l0.5,0.4l1,0.7c0.6,0.4,1,0.7,1.3,1c0.8,0.8,1.2,1.6,1.2,2.4c0,0.9-0.8,2.3-2.8,2.3
	c-1.7,0-3.4-1-4.8-2.9l-0.5-0.8l-0.2-0.2l0.1,5.4l0,0c1.7,1.4,3.5,2.1,5.6,2.1c1.6,0,3.1-0.6,4.1-1.8c1-1.1,1.6-2.7,1.6-4.4
	c0-3.6-2.2-5.4-4.3-6.7l-1.5-1c-0.5-0.4-1-0.7-1.3-0.9c-0.8-0.7-1.2-1.4-1.2-2.2C287.9,28.1,289,27.2,290.6,27.2z"/>
<path d="M337.4,45.8h3.5c0,0,0-11.5,0-11.5c0,0,7.5-10.6,7.5-10.6h-4.3c0,0-4.9,6.9-5,7.1c-0.1-0.2-5-7.1-5-7.1l-4.3,0
	c0,0,7.5,10.5,7.5,10.6C337.4,34.3,337.4,45.8,337.4,45.8z"/>
<rect x="216.5" y="23.7" width="3.5" height="22.1"/>
<rect x="301.3" y="23.7" width="3.5" height="22.1"/>
<polygon points="316.5,45.8 320,45.8 320,27.2 326.6,27.2 326.6,23.7 309.8,23.7 309.8,27.2 316.5,27.2 "/>
<polygon points="386.3,35.7 393.7,35.7 393.7,32.3 386.3,32.3 386.3,27.2 393.7,27.2 393.7,23.7 382.9,23.7 382.9,45.6 386.3,45.6 
	"/>
<path d="M367.1,46.1c3.2,0,5.9-1.2,7.8-3.4c1.8-2.1,2.8-4.8,2.8-7.8c0-3-1-5.8-2.9-7.9c-2-2.2-4.6-3.3-7.7-3.3c-3,0-5.7,1.2-7.7,3.4
	c-1.9,2.1-2.9,4.9-2.9,7.9c0,3,1,5.7,2.8,7.8C361.4,44.9,364.1,46.1,367.1,46.1z M362.2,29.4c1.3-1.4,3.1-2.2,5-2.2
	c4.1,0,7,3.2,7,7.7c0,2.1-0.7,4.1-2,5.5c-1.3,1.4-3.1,2.2-5,2.2c-1.9,0-3.7-0.8-5-2.2c-1.3-1.4-2-3.4-2-5.5
	C360.2,32.8,360.9,30.8,362.2,29.4z"/>
<path d="M321.7,52.7h-3.2L307.2,82h4.8c0,0,3.1-8.1,3.2-8.3c0.2,0,9.9,0,10.1,0c0.1,0.1,3.4,8.3,3.4,8.3h4.8L321.7,52.7z M317,69.1
	c0.1-0.3,2.9-7.8,3.1-8.3c0.2,0.5,3.2,8,3.3,8.3C323,69.1,317.3,69.1,317,69.1z"/>
<polygon points="302.4,77.4 291,77.4 291,52.9 286.3,52.9 286.3,82 302.4,82 "/>
<path d="M178.1,73.7c0.2,0,9.9,0,10.1,0c0.1,0.1,3.4,8.3,3.4,8.3h4.8l-11.7-29.3h-3.3L170.1,82h4.8C174.9,82,178.1,73.9,178.1,73.7z
	 M183,60.8c0.2,0.5,3.2,8,3.3,8.3c-0.3,0-6.1,0-6.4,0C180,68.8,182.8,61.3,183,60.8z"/>
<path d="M253.5,79.7V74l-0.2,0.1l-0.6,0.4c-2.7,2-5.8,3.1-8.5,3.1c-2.8,0-5.3-1-7-2.8c-1.8-1.8-2.7-4.4-2.7-7.4c0-2.9,1-5.5,2.7-7.4
	c1.8-1.9,4.2-2.9,6.8-2.9c2.8,0,5.4,0.9,8.5,2.8l0.6,0.4l0.2,0.1l-0.2-5.7l-0.1,0c-3.5-1.7-6.2-2.4-8.9-2.4
	c-8.3,0-14.4,6.5-14.4,15.3c0,3.3,1.3,6.9,3.4,9.5c1.8,2.3,5.2,5,10.8,5C248.3,82.4,251.1,81.1,253.5,79.7L253.5,79.7z"/>
<path d="M267.9,66.7c0.1-0.2,11.4-13.8,11.4-13.8h-5.8c0,0-9.5,11.5-9.9,12c0-0.6,0-12,0-12h-4.6V82h4.6c0,0,0-12.5,0-13.1
	C264,69.3,275.7,82,275.7,82h6.4C282.1,82,268,66.8,267.9,66.7z"/>
<path d="M391.2,57.6c-2.5-3.1-6.2-4.7-10.6-4.7h-10.3V82h10.4c4.1,0,7.6-1.6,10.2-4.5c2.4-2.7,3.7-6.3,3.7-10.1
	C394.5,63.8,393.3,60.2,391.2,57.6z M380.1,77.4c0,0-5.1,0-5.3,0c0-0.2,0-19.6,0-19.9c0.2,0,5.1,0,5.1,0c3.1,0,5.7,1,7.4,2.9
	c1.6,1.7,2.4,4.2,2.4,7C389.8,71.1,387.7,77.4,380.1,77.4z"/>
<path d="M212.6,82.4c3.8,0,6.8-1.1,8.8-3.3c1.9-2.1,2.9-5,2.9-8.6V52.9h-4.6v16.9c0,3-0.4,4.6-1.5,5.8c-0.7,0.8-2.4,2.1-5.6,2.1
	c-2.1,0-3.7-0.7-5.1-2.2c-1.1-1.2-1.4-2.5-1.4-5.4V52.9l-4.6,0v18c0,3.7,1.2,6.7,3.4,8.7C206.9,81.4,209.6,82.4,212.6,82.4z"/>
<path d="M358.2,73.7c-0.4-0.5-16.4-20.8-16.4-20.8l-3.6,0V82h4.4c0,0,0-20,0-20.7C343,61.9,358.8,82,358.8,82h3.9V52.9h-4.4
	C358.2,52.9,358.2,73.1,358.2,73.7z"/>
<rect x="170.3" y="117.5" width="224" height="1.3"/>
<g>
	<path d="M193.5,89h2.5l-7.1,17.6h-0.6l-5.7-14.2l-5.8,14.2h-0.5L169.3,89h2.5l4.8,12.1l4.9-12.1h2.4l4.9,12.1L193.5,89z"/>
	<path d="M203.4,99.5v4.9c0,0.4,0.1,0.6,0.4,0.6c0.3,0,0.7-0.2,1.3-0.6v1.4c-0.5,0.3-0.9,0.6-1.2,0.7c-0.3,0.1-0.6,0.2-1,0.2
		c-1,0-1.6-0.4-1.7-1.2c-1,0.8-2,1.1-3.1,1.1c-0.8,0-1.5-0.3-2-0.8c-0.5-0.5-0.8-1.2-0.8-2c0-0.7,0.3-1.4,0.8-1.9
		c0.5-0.6,1.3-1,2.2-1.4l2.9-1v-0.6c0-1.4-0.7-2.1-2.1-2.1c-1.2,0-2.5,0.6-3.6,1.9v-2.5c0.9-1,2.2-1.6,3.8-1.6c1.2,0,2.2,0.3,3,1
		c0.3,0.2,0.5,0.5,0.7,0.8c0.2,0.3,0.3,0.7,0.4,1C203.3,97.9,203.4,98.6,203.4,99.5z M201.1,104.2v-3.4l-1.5,0.6
		c-0.8,0.3-1.3,0.6-1.6,0.9c-0.3,0.3-0.5,0.7-0.5,1.2c0,0.5,0.2,0.9,0.5,1.2c0.3,0.3,0.7,0.5,1.2,0.5
		C199.8,105.1,200.5,104.8,201.1,104.2z"/>
	<path d="M208.3,90.1c0.4,0,0.7,0.1,1,0.4c0.3,0.3,0.4,0.6,0.4,1c0,0.4-0.1,0.7-0.4,1c-0.3,0.3-0.6,0.4-1,0.4
		c-0.4,0-0.7-0.1-0.9-0.4c-0.3-0.3-0.4-0.6-0.4-0.9c0-0.4,0.1-0.7,0.4-0.9C207.6,90.2,207.9,90.1,208.3,90.1z M207.1,94.9h2.3v11.5
		h-2.3V94.9z"/>
	<path d="M212,112.3V94.9h4c2,0,3.6,0.5,4.8,1.5c1.1,1,1.7,2.4,1.7,4.3c0,1.7-0.5,3.1-1.6,4.3c-1.1,1.1-2.4,1.7-4.1,1.7
		c-0.7,0-1.5-0.2-2.4-0.5v6.2H212z M216,97.1h-1.6v7.1c0.7,0.4,1.4,0.5,2.2,0.5c1.1,0,1.9-0.4,2.6-1.1c0.7-0.7,1-1.7,1-2.9
		c0-0.8-0.2-1.4-0.5-2c-0.3-0.6-0.8-1-1.3-1.3S217,97.1,216,97.1z"/>
	<path d="M232.3,99.5v4.9c0,0.4,0.1,0.6,0.4,0.6c0.3,0,0.7-0.2,1.3-0.6v1.4c-0.5,0.3-0.9,0.6-1.2,0.7c-0.3,0.1-0.6,0.2-1,0.2
		c-1,0-1.6-0.4-1.7-1.2c-1,0.8-2,1.1-3.1,1.1c-0.8,0-1.5-0.3-2-0.8c-0.5-0.5-0.8-1.2-0.8-2c0-0.7,0.3-1.4,0.8-1.9
		c0.5-0.6,1.3-1,2.2-1.4l2.9-1v-0.6c0-1.4-0.7-2.1-2.1-2.1c-1.2,0-2.5,0.6-3.6,1.9v-2.5c0.9-1,2.2-1.6,3.8-1.6c1.2,0,2.2,0.3,3,1
		c0.3,0.2,0.5,0.5,0.7,0.8c0.2,0.3,0.3,0.7,0.4,1C232.2,97.9,232.3,98.6,232.3,99.5z M230,104.2v-3.4l-1.5,0.6
		c-0.8,0.3-1.3,0.6-1.6,0.9c-0.3,0.3-0.5,0.7-0.5,1.2c0,0.5,0.2,0.9,0.5,1.2c0.3,0.3,0.7,0.5,1.2,0.5
		C228.7,105.1,229.4,104.8,230,104.2z"/>
	<path d="M235.6,112.3V94.9h4c2,0,3.6,0.5,4.8,1.5c1.1,1,1.7,2.4,1.7,4.3c0,1.7-0.5,3.1-1.6,4.3c-1.1,1.1-2.4,1.7-4.1,1.7
		c-0.7,0-1.5-0.2-2.4-0.5v6.2H235.6z M239.5,97.1h-1.6v7.1c0.7,0.4,1.4,0.5,2.2,0.5c1.1,0,1.9-0.4,2.6-1.1c0.7-0.7,1-1.7,1-2.9
		c0-0.8-0.2-1.4-0.5-2c-0.3-0.6-0.8-1-1.3-1.3C241.4,97.2,240.6,97.1,239.5,97.1z"/>
	<path d="M255.8,99.5v4.9c0,0.4,0.1,0.6,0.4,0.6c0.3,0,0.7-0.2,1.3-0.6v1.4c-0.5,0.3-0.9,0.6-1.2,0.7c-0.3,0.1-0.6,0.2-1,0.2
		c-1,0-1.6-0.4-1.7-1.2c-1,0.8-2,1.1-3.1,1.1c-0.8,0-1.5-0.3-2-0.8c-0.5-0.5-0.8-1.2-0.8-2c0-0.7,0.3-1.4,0.8-1.9
		c0.5-0.6,1.3-1,2.2-1.4l2.9-1v-0.6c0-1.4-0.7-2.1-2.1-2.1c-1.2,0-2.5,0.6-3.6,1.9v-2.5c0.9-1,2.2-1.6,3.8-1.6c1.2,0,2.2,0.3,3,1
		c0.3,0.2,0.5,0.5,0.7,0.8s0.3,0.7,0.4,1C255.7,97.9,255.8,98.6,255.8,99.5z M253.5,104.2v-3.4l-1.5,0.6c-0.8,0.3-1.3,0.6-1.6,0.9
		c-0.3,0.3-0.5,0.7-0.5,1.2c0,0.5,0.2,0.9,0.5,1.2c0.3,0.3,0.7,0.5,1.2,0.5C252.2,105.1,252.9,104.8,253.5,104.2z"/>
	<path d="M262.7,88.9h14.6v2.2h-6.1v15.3h-2.5V91.2h-6V88.9z"/>
	<path d="M283.4,99.5v4.9c0,0.4,0.1,0.6,0.4,0.6c0.3,0,0.7-0.2,1.3-0.6v1.4c-0.5,0.3-0.9,0.6-1.2,0.7c-0.3,0.1-0.6,0.2-1,0.2
		c-1,0-1.6-0.4-1.7-1.2c-1,0.8-2,1.1-3.1,1.1c-0.8,0-1.5-0.3-2-0.8c-0.5-0.5-0.8-1.2-0.8-2c0-0.7,0.3-1.4,0.8-1.9
		c0.5-0.6,1.3-1,2.2-1.4l2.9-1v-0.6c0-1.4-0.7-2.1-2.1-2.1c-1.2,0-2.5,0.6-3.6,1.9v-2.5c0.9-1,2.2-1.6,3.8-1.6c1.2,0,2.2,0.3,3,1
		c0.2,0.2,0.5,0.5,0.7,0.8s0.3,0.7,0.4,1S283.4,98.6,283.4,99.5z M281.2,104.2v-3.4l-1.5,0.6c-0.8,0.3-1.3,0.6-1.6,0.9
		c-0.3,0.3-0.5,0.7-0.5,1.2c0,0.5,0.2,0.9,0.5,1.2c0.3,0.3,0.7,0.5,1.2,0.5C279.9,105.1,280.6,104.8,281.2,104.2z"/>
	<path d="M294.5,106.5V105c-0.5,0.5-1,0.9-1.7,1.2c-0.6,0.3-1.2,0.4-1.9,0.4c-0.7,0-1.4-0.2-2-0.5s-1.1-0.9-1.4-1.5
		c-0.3-0.6-0.5-1.7-0.5-3.1v-6.6h2.3v6.6c0,1.2,0.2,2.1,0.5,2.5c0.3,0.5,1,0.7,1.8,0.7c1.1,0,2-0.5,2.8-1.6v-8.2h2.3v11.5H294.5z"/>
	<path d="M308.9,98.1v8.4h-2.3v-6.4c0-1.3-0.2-2.2-0.5-2.7c-0.3-0.5-0.9-0.8-1.8-0.8c-0.5,0-0.9,0.1-1.3,0.3
		c-0.4,0.2-0.8,0.6-1.4,1.2v8.4h-2.3V94.9h2.3v1.5c1.2-1.2,2.3-1.7,3.4-1.7c1.5,0,2.6,0.7,3.4,2.1c1.2-1.4,2.5-2.1,3.8-2.1
		c1.1,0,2,0.4,2.8,1.2c0.7,0.8,1.1,2.1,1.1,3.7v6.8h-2.3v-6.8c0-1-0.2-1.7-0.6-2.2c-0.4-0.5-1-0.8-1.7-0.8
		C310.6,96.7,309.7,97.1,308.9,98.1z"/>
	<path d="M326.5,99.5v4.9c0,0.4,0.1,0.6,0.4,0.6c0.3,0,0.7-0.2,1.3-0.6v1.4c-0.5,0.3-0.9,0.6-1.2,0.7c-0.3,0.1-0.6,0.2-1,0.2
		c-1,0-1.6-0.4-1.7-1.2c-1,0.8-2,1.1-3.1,1.1c-0.8,0-1.5-0.3-2-0.8c-0.5-0.5-0.8-1.2-0.8-2c0-0.7,0.3-1.4,0.8-1.9
		c0.5-0.6,1.3-1,2.2-1.4l2.9-1v-0.6c0-1.4-0.7-2.1-2.1-2.1c-1.2,0-2.5,0.6-3.6,1.9v-2.5c0.9-1,2.2-1.6,3.8-1.6c1.2,0,2.2,0.3,3,1
		c0.3,0.2,0.5,0.5,0.7,0.8s0.3,0.7,0.4,1C326.4,97.9,326.5,98.6,326.5,99.5z M324.2,104.2v-3.4l-1.5,0.6c-0.8,0.3-1.3,0.6-1.6,0.9
		c-0.3,0.3-0.5,0.7-0.5,1.2c0,0.5,0.2,0.9,0.5,1.2c0.3,0.3,0.7,0.5,1.2,0.5C322.9,105.1,323.6,104.8,324.2,104.2z"/>
	<path d="M328,96.8l4.3-4.2v2.4h3.6V97h-3.6v5.6c0,1.3,0.5,2,1.6,2c0.8,0,1.7-0.3,2.6-0.8v2.1c-0.9,0.5-1.8,0.7-2.9,0.7
		c-1,0-1.9-0.3-2.6-0.9c-0.2-0.2-0.4-0.4-0.5-0.6c-0.1-0.2-0.3-0.5-0.4-0.9c-0.1-0.4-0.1-1.1-0.1-2.1V97h-2V96.8z"/>
	<path d="M346,99.5v4.9c0,0.4,0.1,0.6,0.4,0.6c0.3,0,0.7-0.2,1.3-0.6v1.4c-0.5,0.3-0.9,0.6-1.2,0.7c-0.3,0.1-0.6,0.2-1,0.2
		c-1,0-1.6-0.4-1.7-1.2c-1,0.8-2,1.1-3.1,1.1c-0.8,0-1.5-0.3-2-0.8c-0.5-0.5-0.8-1.2-0.8-2c0-0.7,0.3-1.4,0.8-1.9
		c0.5-0.6,1.3-1,2.2-1.4l2.9-1v-0.6c0-1.4-0.7-2.1-2.1-2.1c-1.2,0-2.5,0.6-3.6,1.9v-2.5c0.9-1,2.2-1.6,3.8-1.6c1.2,0,2.2,0.3,3,1
		c0.2,0.2,0.5,0.5,0.7,0.8s0.3,0.7,0.4,1S346,98.6,346,99.5z M343.7,104.2v-3.4l-1.5,0.6c-0.8,0.3-1.3,0.6-1.6,0.9
		c-0.3,0.3-0.5,0.7-0.5,1.2c0,0.5,0.2,0.9,0.5,1.2c0.3,0.3,0.7,0.5,1.2,0.5C342.4,105.1,343.1,104.8,343.7,104.2z"/>
	<path d="M357.7,106.5V89h4.4c1.8,0,3.2,0.4,4.2,1.3c1,0.9,1.6,2.1,1.6,3.6c0,1-0.3,1.9-0.8,2.6c-0.5,0.7-1.2,1.3-2.2,1.7
		c0.6,0.4,1.1,0.9,1.6,1.5c0.5,0.6,1.3,1.7,2.3,3.3c0.6,1,1.1,1.7,1.5,2.2l0.9,1.3h-3l-0.8-1.2c0,0-0.1-0.1-0.1-0.2l-0.5-0.7
		l-0.8-1.3l-0.8-1.4c-0.5-0.7-1-1.3-1.4-1.7c-0.4-0.4-0.8-0.7-1.2-0.9c-0.3-0.2-0.9-0.3-1.7-0.3h-0.7v7.6H357.7z M360.9,91.1h-0.8
		v5.5h1c1.3,0,2.1-0.1,2.6-0.3c0.5-0.2,0.8-0.5,1.1-1c0.3-0.4,0.4-0.9,0.4-1.5c0-0.6-0.1-1.1-0.4-1.5c-0.3-0.4-0.7-0.8-1.2-0.9
		C363,91.2,362.2,91.1,360.9,91.1z"/>
	<path d="M380,99.5v4.9c0,0.4,0.1,0.6,0.4,0.6c0.3,0,0.7-0.2,1.3-0.6v1.4c-0.5,0.3-0.9,0.6-1.2,0.7c-0.3,0.1-0.6,0.2-1,0.2
		c-1,0-1.6-0.4-1.7-1.2c-1,0.8-2,1.1-3.1,1.1c-0.8,0-1.5-0.3-2-0.8c-0.5-0.5-0.8-1.2-0.8-2c0-0.7,0.3-1.4,0.8-1.9
		c0.5-0.6,1.3-1,2.2-1.4l2.9-1v-0.6c0-1.4-0.7-2.1-2.1-2.1c-1.2,0-2.5,0.6-3.6,1.9v-2.5c0.9-1,2.2-1.6,3.8-1.6c1.2,0,2.2,0.3,3,1
		c0.3,0.2,0.5,0.5,0.7,0.8c0.2,0.3,0.3,0.7,0.4,1C380,97.9,380,98.6,380,99.5z M377.8,104.2v-3.4l-1.5,0.6c-0.8,0.3-1.3,0.6-1.6,0.9
		c-0.3,0.3-0.5,0.7-0.5,1.2c0,0.5,0.2,0.9,0.5,1.2c0.3,0.3,0.7,0.5,1.2,0.5C376.5,105.1,377.2,104.8,377.8,104.2z"/>
	<path d="M391.1,106.5V105c-0.5,0.5-1,0.9-1.7,1.2c-0.6,0.3-1.2,0.4-1.9,0.4c-0.7,0-1.4-0.2-2-0.5s-1.1-0.9-1.4-1.5
		c-0.3-0.6-0.5-1.7-0.5-3.1v-6.6h2.3v6.6c0,1.2,0.2,2.1,0.5,2.5c0.3,0.5,1,0.7,1.8,0.7c1.1,0,2-0.5,2.8-1.6v-8.2h2.3v11.5H391.1z"/>
</g>
<g>
	<polygon points="179.5,132.4 172.5,124.1 170.4,124.1 170.4,135.9 172.7,135.9 172.7,127.5 179.8,135.9 181.8,135.9 181.8,124.1 
		179.5,124.1 	"/>
	<polygon points="196.1,130.8 201.2,130.8 201.2,129 196.1,129 196.1,125.9 201.4,125.9 201.4,124.1 193.8,124.1 193.8,135.9 
		201.6,135.9 201.6,134.2 196.1,134.2 	"/>
	<polygon points="225.4,131.4 222.2,124.1 220.3,124.1 217.2,131.4 214.2,124.1 211.9,124.1 216.8,136.1 217.5,136.1 221.3,127.3 
		225,136.1 225.8,136.1 230.7,124.1 228.3,124.1 	"/>
	<polygon points="265.4,124.1 255,124.1 255,125.9 261.5,125.9 254.6,135.9 265.5,135.9 265.5,134.2 258.5,134.2 	"/>
	<polygon points="278.9,130.8 284.1,130.8 284.1,129 278.9,129 278.9,125.9 284.3,125.9 284.3,124.1 276.6,124.1 276.6,135.9 
		284.4,135.9 284.4,134.2 278.9,134.2 	"/>
	<path d="M299.6,124.1l-4.9,11.9h2.4l1.1-2.9h5.3l1.2,2.9h2.4l-5.2-11.9H299.6z M299,131.3l1.8-4.7l2,4.7H299z"/>
	<polygon points="320.3,124.1 318,124.1 318,135.9 326.1,135.9 326.1,134.2 320.3,134.2 	"/>
	<path d="M340.7,124.1l-4.9,11.9h2.4l1.1-2.9h5.3l1.2,2.9h2.4l-5.2-11.9H340.7z M340.1,131.3l1.8-4.7l2,4.7H340.1z"/>
	<polygon points="368.2,132.4 361.1,124.1 359.1,124.1 359.1,135.9 361.4,135.9 361.4,127.5 368.4,135.9 370.4,135.9 370.4,124.1 
		368.2,124.1 	"/>
	<path d="M390.7,124.8c-1-0.5-2.1-0.8-3.3-0.8h-5v11.9h4.8c1.3,0,2.4-0.2,3.4-0.7c1-0.5,1.7-1.2,2.3-2.1c0.5-0.9,0.8-1.9,0.8-3.1
		c0-1.1-0.3-2.2-0.8-3.1C392.4,126,391.7,125.3,390.7,124.8z M390.2,133c-0.8,0.8-1.8,1.1-3.1,1.1h-2.4v-8.3h2.4
		c1.3,0,2.4,0.4,3.1,1.1c0.8,0.7,1.2,1.8,1.2,3C391.4,131.2,391,132.2,390.2,133z"/>
</g>
<g>
	<path class="st1" d="M51,53.9C51,53.9,51,53.9,51,53.9c2.7,0,5.3,0.7,7.6,2l0,0l0.3,0.2c4.5,2.6,10.4,2.7,14.9,0l0.2-0.1l0,0
		c4.7-2.7,10.9-2.6,15.6,0.1l0.1,0.1c4.5,2.6,10.3,2.6,14.8-0.1l0.1-0.1c4.8-2.7,11-2.7,15.7,0.1c4.5,2.7,10.4,2.6,14.9,0
		c2.4-1.4,5.1-2.1,7.9-2.1V27.2H51V53.9z M113.5,44.3c0.7-2,2.4-4.6,4.3-7c-0.7-4,3-5.4,4.5-5.3c1.5,0,2.5,1,2.7,1.3
		c1.7-2,4-2.2,5-2.3c7.2-0.2,10.9,5.2,10.8,9.5c-0.2,4.9-3.9,6.1-4.4,6.2c0,0-0.1,1.1,0.8,2.5c0.1,0.1,0.2,0.2,0.1,0.5
		c0,0.1-0.2,0.3-0.2,0.4c0,0-0.1,0.2,0,0.4c0.1,0.3,0,0.7-0.3,1.1c-0.2,0.4,0,1.4,0.1,2.1c0,0.1-0.1,0.1-0.2,0
		c-0.5-0.3-0.8-1.2-0.9-1.7c-0.9,0.2-1.9,1.5-2.2,2.3c0,0.1-0.2,0.2-0.2,0c0-0.1-0.2-1.5,1.2-2.6c-0.7-0.2-1.5,0.1-2,0.4
		c0,0-0.2,0.1-0.1-0.1c0-0.1,0.4-1,2.3-1.2c0-0.1,0.4-0.7,0.6-1.2c0-0.7-0.4-1.6-0.9-2.4c-0.1,0-1.4,0.1-2.4,0.8
		c-0.1,0-0.2,0.2-0.2,0.3s0,0.4,0,0.4c0,0.1-0.1,0.4-0.5,0.6c0,0-1.6,0.5-2.4,0.9c0,0-0.7,0.3-1.2,1c-0.1,0.1-0.5,0.7-1.1,0.9
		c-0.1,0-0.5,0.2-0.7,0.4c-0.2,0.2-0.4,0.4-0.6,0.6c-0.2,0.1-0.6,0.6-0.9,1.2c0,0.1-0.1,0.2-0.1,0c0-0.3,0-0.6,0-0.6
		c0.2-0.8,0.5-1.2,0.9-1.6c-0.1,0-0.1,0-0.2-0.1c-0.6,0.1-2.4-0.1-3.5,0.4c-0.1,0-0.2,0-0.1-0.1c0.2-0.3,0.6-1.3,3.1-1.4
		c0-0.2-1.1-0.8-1.7-0.8c-0.2,0-0.1-0.1,0-0.1c0.1-0.1,1.2-0.5,2.5,0.3c0.1,0,0.9-0.4,1.4-0.4c0.6-0.4,1.9-1.8,2.4-2
		c0-0.1,0-0.4,0-0.6l-0.1,0c-0.7-1-0.8-2.4-0.8-3.2c-1.4-0.1-2.9-1.4-3.7-2.4c-1-0.1-3-0.9-4.1-3.1c-3.7,2.7-6.1,7.4-6.2,7.6
		c-0.1,0.1-0.1,0.1-0.2,0C113.4,45.7,113.3,44.6,113.5,44.3z M83.1,44.3c0.7-2,2.4-4.6,4.3-7c-0.7-4,3-5.4,4.5-5.3
		c1.5,0,2.5,1,2.7,1.3c1.7-2,3.9-2.2,5-2.3c7.2-0.2,10.9,5.2,10.8,9.5c-0.2,4.9-3.9,6.1-4.4,6.2c0,0-0.1,1.1,0.8,2.5
		c0.1,0.1,0.2,0.2,0.1,0.5c0,0.1-0.2,0.3-0.2,0.4c0,0-0.1,0.2,0,0.4c0.1,0.3,0,0.7-0.3,1.1c-0.2,0.4,0,1.4,0.1,2.1
		c0,0.1-0.1,0.1-0.2,0c-0.5-0.3-0.8-1.2-0.9-1.7c-0.9,0.2-1.9,1.5-2.2,2.3c0,0.1-0.2,0.2-0.3,0c0-0.1-0.2-1.5,1.2-2.6
		c-0.7-0.2-1.5,0.1-2,0.4c0,0-0.2,0.1-0.1-0.1c0-0.1,0.4-1,2.3-1.2c0-0.1,0.4-0.7,0.6-1.2c0-0.7-0.4-1.6-0.9-2.4
		c-0.1,0-1.4,0.1-2.4,0.8c-0.1,0-0.2,0.2-0.2,0.3s0,0.4,0,0.4c0,0.1-0.1,0.4-0.6,0.6c0,0-1.6,0.5-2.4,0.9c0,0-0.7,0.3-1.2,1
		c-0.1,0.1-0.5,0.7-1.1,0.9c-0.1,0-0.5,0.2-0.7,0.4c-0.2,0.2-0.4,0.4-0.6,0.6c-0.2,0.1-0.6,0.6-0.9,1.2c0,0.1-0.1,0.2-0.1,0
		c0-0.3,0-0.6,0-0.6c0.2-0.8,0.6-1.2,0.9-1.6c-0.1,0-0.1,0-0.2-0.1c-0.6,0.1-2.4-0.1-3.5,0.4c-0.1,0-0.2,0-0.1-0.1
		c0.2-0.3,0.6-1.3,3.1-1.4c0-0.2-1.1-0.8-1.7-0.8c-0.2,0-0.1-0.1,0-0.1c0.1-0.1,1.2-0.5,2.5,0.3c0.1,0,0.9-0.4,1.4-0.4
		c0.6-0.4,1.9-1.8,2.4-2c0-0.1,0-0.4,0-0.6l-0.1,0c-0.7-1-0.8-2.4-0.8-3.2C96.3,44.2,94.8,43,94,42c-1-0.1-3-0.9-4.1-3.1
		c-3.7,2.7-6.1,7.4-6.2,7.6c-0.1,0.1-0.1,0.1-0.2,0C83,45.7,83,44.6,83.1,44.3z M52.5,44.3c0.7-2,2.4-4.6,4.3-7
		c-0.7-4,3-5.4,4.4-5.3c1.5,0,2.5,1,2.7,1.3c1.7-2,3.9-2.2,5-2.3c7.2-0.2,10.9,5.2,10.8,9.5c-0.2,4.9-3.9,6.1-4.4,6.2
		c0,0-0.1,1.1,0.8,2.5c0.1,0.1,0.2,0.2,0.1,0.5c0,0.1-0.2,0.3-0.2,0.4c0,0-0.1,0.2,0,0.4c0.1,0.3,0,0.7-0.3,1.1
		c-0.2,0.4,0,1.4,0.1,2.1c0,0.1-0.1,0.1-0.2,0c-0.5-0.3-0.8-1.2-0.9-1.7c-0.9,0.2-1.9,1.5-2.2,2.3c0,0.1-0.2,0.2-0.2,0
		c0-0.1-0.2-1.5,1.2-2.6c-0.7-0.2-1.5,0.1-2,0.4c0,0-0.2,0.1-0.1-0.1c0-0.1,0.4-1,2.3-1.2c0-0.1,0.4-0.7,0.6-1.2
		c-0.1-0.7-0.4-1.6-0.9-2.4c-0.1,0-1.4,0.1-2.4,0.8c-0.1,0-0.2,0.2-0.2,0.3s0,0.4,0,0.4c0,0.1-0.1,0.4-0.6,0.6c0,0-1.6,0.5-2.4,0.9
		c0,0-0.7,0.3-1.2,1c-0.1,0.1-0.5,0.7-1.1,0.9c-0.1,0-0.5,0.2-0.7,0.4c-0.2,0.2-0.4,0.4-0.6,0.6c-0.2,0.1-0.6,0.6-0.9,1.2
		c-0.1,0.1-0.1,0.2-0.1,0c0-0.3,0-0.6,0-0.6c0.2-0.8,0.5-1.2,0.9-1.6c-0.1,0-0.1,0-0.2-0.1c-0.6,0.1-2.4-0.1-3.5,0.4
		c-0.1,0-0.2,0-0.1-0.1c0.2-0.3,0.6-1.3,3.1-1.4c0-0.2-1.1-0.8-1.7-0.8c-0.2,0-0.1-0.1,0-0.1c0.1-0.1,1.2-0.5,2.5,0.3
		c0.1,0,0.9-0.4,1.4-0.4c0.6-0.4,1.9-1.8,2.4-2c0-0.1-0.1-0.4,0-0.6l-0.1,0c-0.7-1-0.8-2.4-0.8-3.2c-1.4-0.1-2.9-1.4-3.7-2.4
		c-1-0.1-3-0.9-4.1-3.1c-3.7,2.7-6.1,7.4-6.2,7.6c-0.1,0.1-0.1,0.1-0.2,0C52.5,45.7,52.4,44.6,52.5,44.3z"/>
	<path class="st1" d="M96.6,105.6c-0.2-0.3-0.3-0.5-0.5-0.7h-1.6c-0.3,0-0.5,0.2-0.5,0.5s0.2,0.5,0.5,0.5h5.1c0.3,0,0.5-0.2,0.5-0.5
		s-0.2-0.5-0.5-0.5h-1.6c-0.2,0.2-0.3,0.5-0.5,0.7L96.6,105.6z"/>
	<polygon class="st1" points="80.7,64 78.5,57.1 76.4,64 69.1,64 75.1,68.2 72.9,75 78.5,70.8 84.2,75 82,68.2 87.9,64 	"/>
	<polygon class="st1" points="117.7,63.9 115.5,57.1 113.3,63.9 106.1,63.9 112,68.2 109.9,75 115.5,70.7 121.1,75 119,68.2 
		124.9,63.9 	"/>
	<polygon class="st1" points="99.2,117.3 97,110.5 94.8,117.3 87.6,117.3 93.5,121.6 91.4,128.4 97,124.1 102.7,128.4 100.5,121.6 
		106.4,117.3 	"/>
	<path class="st1" d="M59.5,37.5c0.2,0.2,1.5,3.4,4.3,3.6c0.3,0.2,1.7,2.6,4.3,2.4c0,0.3,0,2.6,0.5,3.3l0.1,0.1c0-0.1,0,0,0,0
		c0.2-0.2,1.6-1.3,2.8-1.6c0,0,0.5-1.6,0.9-2c2.5-0.6,3.7-2.5,3.8-4.4c0.1-2.6-2.3-5.4-4.9-5.1c0,0-0.1,0,0-0.1
		c0.1-0.2,0.8-0.5,1.3-0.6c-2.2-0.9-3.6,0.2-3.5,0.1l0-0.1c0,0,0.3-0.5,1-1c-2,0-3,1.1-3,1.1l0-0.1c0,0,0.1-0.4,0.8-1
		c-2.3,0.1-4,2.9-4,2.9s-0.4-2.1-2.4-2.1c-1.4-0.2-4.7,1.8-3.4,4.4c-0.6,1.1-2.5,2.7-4.1,6.1c0,0.1,0,0,0,0.1
		C55.3,41.5,57.4,38.8,59.5,37.5z M59.1,35.7c0.3,0,0.6,0.3,0.6,0.6c0,0.3-0.3,0.6-0.6,0.6c-0.3,0-0.6-0.3-0.6-0.6
		C58.5,36,58.7,35.7,59.1,35.7z"/>
	<path class="st1" d="M90.1,37.5c0.2,0.2,1.5,3.4,4.3,3.6c0.3,0.2,1.7,2.6,4.3,2.4c0,0.3,0,2.6,0.5,3.3l0.1,0.1c0-0.1,0,0,0,0
		c0.2-0.2,1.6-1.3,2.8-1.6c0,0,0.5-1.6,0.9-2c2.5-0.6,3.7-2.5,3.8-4.4c0-2.6-2.3-5.4-4.9-5.1c0,0-0.1,0,0-0.1
		c0.1-0.2,0.8-0.5,1.3-0.6c-2.2-0.9-3.6,0.2-3.5,0.1l0-0.1c0,0,0.3-0.5,1-1c-2,0-3,1.1-3,1.1l0-0.1c0,0,0.1-0.4,0.8-1
		c-2.3,0.1-4,2.9-4,2.9s-0.4-2.1-2.4-2.1c-1.4-0.2-4.7,1.8-3.4,4.4c-0.6,1.1-2.5,2.7-4.1,6.1c0,0.1,0,0,0,0.1
		C85.8,41.5,87.9,38.8,90.1,37.5z M89.6,35.7c0.3,0,0.6,0.3,0.6,0.6c0,0.3-0.3,0.6-0.6,0.6c-0.3,0-0.6-0.3-0.6-0.6
		C89,36,89.3,35.7,89.6,35.7z"/>
	<path class="st1" d="M120.5,37.5c0.2,0.2,1.5,3.4,4.3,3.6c0.3,0.2,1.7,2.6,4.3,2.4c0,0.3,0,2.6,0.5,3.3l0.1,0.1c0-0.1,0,0,0,0
		c0.2-0.2,1.6-1.3,2.8-1.6c0,0,0.5-1.6,0.8-2c2.5-0.6,3.7-2.5,3.8-4.4c0-2.6-2.3-5.4-4.9-5.1c0,0-0.1,0,0-0.1
		c0.1-0.2,0.8-0.5,1.3-0.6c-2.2-0.9-3.6,0.2-3.5,0.1l0-0.1c0,0,0.3-0.5,1-1c-2,0-3,1.1-3,1.1l0-0.1c0,0,0.1-0.4,0.8-1
		c-2.3,0.1-4,2.9-4,2.9s-0.4-2.1-2.4-2.1c-1.4-0.2-4.7,1.8-3.4,4.4c-0.6,1.1-2.5,2.7-4.1,6.1c0,0.1,0,0,0,0.1
		C116.2,41.5,118.3,38.8,120.5,37.5z M120,35.7c0.3,0,0.6,0.3,0.6,0.6c0,0.3-0.3,0.6-0.6,0.6c-0.3,0-0.6-0.3-0.6-0.6
		C119.4,36,119.7,35.7,120,35.7z"/>
	<path d="M48.8,25v48.6c0,4,1.6,14.6,7.6,26c8.3,15.7,21.8,27.6,40.2,35.3l0.4,0.2l0.4-0.2c39.2-16.4,47.8-49.8,47.8-61.2V25H48.8z
		 M100.8,103.2l-0.7,0.5l0.7,0.4c0.5,0.2,0.8,0.7,0.8,1.3c0,0.8-0.7,1.5-1.5,1.5h-6.3c-0.8,0-1.5-0.7-1.5-1.5c0-0.5,0.3-1,0.8-1.3
		l0.7-0.4l-0.7-0.5c-1.5-1-3.2-1.5-5-1.5c-1.7,0-3.4,0.5-5,1.5c-1.7,1.1-3.3,1.5-5.9,1.5c-3.4,0-6.1-1-8.6-3.1l-0.1-0.1H67l-0.1,0.2
		c-0.2,0.3-0.6,0.4-0.9,0.4c-0.6,0-1.2-0.5-1.2-1.1c0-0.6,0.5-1.1,1.2-1.1c0.4,0,0.7,0.2,0.9,0.4l0.1,0.2h1.9v-2.3H67l-0.1,0.2
		c-0.2,0.3-0.6,0.4-0.9,0.4c-0.6,0-1.2-0.5-1.2-1.1c0-0.6,0.5-1.1,1.2-1.1c0.4,0,0.7,0.2,0.9,0.4l0.1,0.2h1.9V95H67l-0.1,0.2
		c-0.2,0.3-0.6,0.4-0.9,0.4c-0.6,0-1.2-0.5-1.2-1.1c0-0.6,0.5-1.1,1.2-1.1c0.4,0,0.7,0.2,0.9,0.4l0.1,0.2h1.9v-2.3H67L66.9,92
		c-0.2,0.3-0.6,0.4-0.9,0.4c-0.6,0-1.2-0.5-1.2-1.1c0-0.6,0.5-1.1,1.2-1.1c0.4,0,0.7,0.2,0.9,0.4l0.1,0.2h1.9v-2.3H67l-0.1,0.2
		c-0.2,0.3-0.6,0.4-0.9,0.4c-0.6,0-1.2-0.5-1.2-1.1c0-0.6,0.5-1.1,1.2-1.1c0.4,0,0.7,0.2,0.9,0.4l0.1,0.2h1.9v-2.3h-1.9l-0.1,0.2
		c-0.2,0.3-0.6,0.4-0.9,0.4c-0.6,0-1.2-0.5-1.2-1.1c0-0.6,0.5-1.1,1.2-1.1c0.4,0,0.7,0.2,0.9,0.4l0.1,0.2h1.8v-2.3h-1.8l-0.1,0.2
		c-0.2,0.3-0.6,0.4-0.9,0.4c-0.6,0-1.2-0.5-1.2-1.1c0-0.6,0.5-1.1,1.2-1.1c0.4,0,0.7,0.2,0.9,0.4l0.1,0.2l1.5,0l1.6-0.8v20.8
		l0.2,0.4c4.3,2.7,8.6,3,12.5,0.8c4.1-2.3,9.9-2.4,13.2,2.5h-1.6c-0.3,0-0.5,0.2-0.5,0.5s0.2,0.5,0.5,0.5h5.1c0.3,0,0.5-0.2,0.5-0.5
		s-0.2-0.5-0.5-0.5h-1.6c3.4-5,9.2-4.5,13.3-2.5c3.6,1.8,7.8,1.5,12.5-0.8l0.3-0.4l0-20.8l1.6,0.8l1.5,0l0.1-0.2
		c0.2-0.3,0.6-0.4,0.9-0.4c0.6,0,1.2,0.5,1.2,1.1c0,0.6-0.5,1.1-1.2,1.1c-0.4,0-0.7-0.2-0.9-0.4l-0.1-0.2h-1.8v2.3h1.8l0.1-0.2
		c0.2-0.3,0.6-0.4,0.9-0.4c0.6,0,1.2,0.5,1.2,1.1c0,0.6-0.5,1.1-1.2,1.1c-0.4,0-0.7-0.2-0.9-0.4l-0.1-0.2h-1.8v2.3h1.9l0.1-0.2
		c0.2-0.3,0.6-0.4,0.9-0.4c0.6,0,1.2,0.5,1.2,1.1c0,0.6-0.5,1.1-1.2,1.1c-0.4,0-0.7-0.2-0.9-0.4l-0.1-0.2h-1.9v2.3h1.9l0.1-0.2
		c0.2-0.3,0.6-0.4,0.9-0.4c0.6,0,1.2,0.5,1.2,1.1c0,0.6-0.5,1.1-1.2,1.1c-0.4,0-0.7-0.2-0.9-0.4l-0.1-0.2h-1.9v2.3h1.9l0.1-0.2
		c0.2-0.3,0.6-0.4,0.9-0.4c0.6,0,1.2,0.5,1.2,1.1c0,0.6-0.5,1.1-1.2,1.1c-0.4,0-0.7-0.2-0.9-0.4L127,95h-1.9v2.3h1.9l0.1-0.2
		c0.2-0.3,0.6-0.4,0.9-0.4c0.6,0,1.2,0.5,1.2,1.1c0,0.6-0.5,1.1-1.2,1.1c-0.4,0-0.7-0.2-0.9-0.4l-0.1-0.2h-1.9v2.3h1.9l0.1-0.2
		c0.2-0.3,0.6-0.4,0.9-0.4c0.6,0,1.2,0.5,1.2,1.1c0,0.6-0.5,1.1-1.2,1.1c-0.4,0-0.7-0.2-0.9-0.4l-0.1-0.2h-1.6l-0.1,0.1
		c-2.5,2.1-5.2,3.1-8.6,3.1c-2.7,0-4.2-0.4-5.9-1.5C107.7,101.2,103.9,101.2,100.8,103.2z M72.4,100.4c3.2,1.7,5.8,2.2,10.5-0.3
		c5.2-2.7,10.5-0.9,13.6,2v1.6c-3.8-4.9-9.8-4.7-14.2-2.2c-3.5,2-7.4,1.8-11.3-0.6v-21l1.1-0.5v21L72.4,100.4z M73.1,99.7V78.8
		l0.1-0.1c3.6,0.8,6.3,0.6,10-1c4.4-1.9,8.9-1.3,13.3,1.8v21.3c-2.1-1.8-5.1-3-8.3-3c-1.9,0-3.8,0.4-5.8,1.4
		C78.3,101.4,76,101.1,73.1,99.7z M111.1,100.1c4.7,2.4,7.3,2,10.5,0.3l0.3-0.1v-21l1.1,0.5l0,21c-4.3,2.1-8.1,2.3-11.3,0.6
		c-4.3-2.2-10.3-2.7-14.1,2.3v-1.6C100.6,99.2,105.9,97.4,111.1,100.1z M97.5,100.8V79.5c4.4-3,8.9-3.6,13.3-1.8
		c3.6,1.5,6.4,1.8,9.9,1l0.1,0.1v20.9c-2.8,1.5-5.1,1.8-9.4-0.4C106.3,96.5,100.9,98,97.5,100.8z M121.1,75l-5.6-4.3l-5.6,4.3
		l2.2-6.8l-5.9-4.3h7.2l2.2-6.8l2.2,6.8h7.2l-5.9,4.3L121.1,75z M84.2,75l-5.6-4.3L72.9,75l2.2-6.8L69.1,64h7.2l2.2-6.8l2.2,6.8h7.2
		L82,68.2L84.2,75z M91.4,128.4l2.2-6.8l-5.9-4.3h7.2l2.2-6.8l2.2,6.8h7.2l-5.9,4.3l2.2,6.8l-5.6-4.3L91.4,128.4z M143.1,54
		c-2.8,0-5.5,0.7-7.9,2.1c-4.5,2.6-10.3,2.7-14.9,0c-4.7-2.8-10.9-2.8-15.7-0.1l-0.1,0.1c-4.5,2.6-10.3,2.7-14.8,0.1l-0.1-0.1
		C84.9,53.3,78.7,53.3,74,56l0,0l-0.2,0.1c-4.5,2.6-10.4,2.6-14.9,0l-0.3-0.2l0,0c-2.3-1.3-4.9-2-7.6-2c0,0,0,0,0,0V27.2h92.1V54z"
		/>
	<path d="M63.4,42c0.8,1,2.3,2.3,3.7,2.4c0,0.8,0.1,2.2,0.8,3.2l0.1,0c-0.1,0.3,0,0.6,0,0.6c-0.5,0.2-1.8,1.5-2.4,2
		c-0.5,0-1.4,0.4-1.4,0.4c-1.3-0.8-2.4-0.4-2.5-0.3c-0.1,0-0.2,0.1,0,0.1c0.6,0,1.7,0.5,1.7,0.8c-2.4,0.1-2.9,1.1-3.1,1.4
		c-0.1,0.1,0,0.1,0.1,0.1c1.1-0.5,2.9-0.4,3.5-0.4c0.1,0.1,0.1,0,0.2,0.1c-0.3,0.4-0.7,0.8-0.9,1.6c0,0,0,0.3,0,0.6
		c0,0.2,0.1,0.1,0.1,0c0.3-0.6,0.7-1.1,0.9-1.2c0.2-0.1,0.4-0.3,0.6-0.6c0.2-0.2,0.5-0.4,0.7-0.4c0.6-0.2,1-0.8,1.1-0.9
		c0.5-0.7,1.2-1,1.2-1c0.8-0.4,2.3-0.9,2.4-0.9c0.5-0.2,0.6-0.5,0.6-0.6c0,0,0-0.2,0-0.4s0.1-0.3,0.2-0.3c0.9-0.7,2.3-0.8,2.4-0.8
		c0.4,0.8,0.8,1.7,0.9,2.4c-0.2,0.5-0.6,1.1-0.6,1.2C71.7,51,71.3,52,71.3,52c-0.2,0.2,0.1,0.1,0.1,0.1c0.5-0.3,1.2-0.6,2-0.4
		c-1.4,1.1-1.2,2.5-1.2,2.6c0,0.2,0.2,0.1,0.2,0c0.3-0.8,1.4-2,2.2-2.3c0.1,0.5,0.5,1.4,0.9,1.7c0.1,0.1,0.2,0.1,0.2,0
		c-0.1-0.7-0.3-1.7-0.1-2.1c0.2-0.4,0.4-0.8,0.3-1.1c-0.1-0.2,0-0.3,0-0.4c0-0.1,0.2-0.3,0.2-0.4c0.2-0.3,0-0.4-0.1-0.5
		c-0.8-1.4-0.8-2.5-0.8-2.5c0.5-0.1,4.3-1.3,4.4-6.2c0.2-4.3-3.5-9.8-10.8-9.5c-1,0-3.3,0.3-5,2.3c-0.2-0.3-1.2-1.3-2.7-1.3
		c-1.4-0.1-5.2,1.3-4.4,5.3c-1.9,2.4-3.6,5.1-4.3,7c-0.1,0.4-0.1,1.5,0.4,2.2c0.1,0.1,0.1,0.1,0.2,0c0.1-0.2,2.5-5,6.2-7.6
		C60.4,41,62.4,41.9,63.4,42z M53.8,43.6c0-0.1,0,0,0-0.1c1.6-3.3,3.5-5,4.1-6.1c-1.2-2.7,2-4.6,3.4-4.4c2,0,2.4,2.1,2.4,2.1
		s1.8-2.9,4-2.9c-0.6,0.6-0.8,1-0.8,1l0,0.1c0,0,1-1.1,3-1.1c-0.7,0.5-1,1-1,1l0,0.1c0,0.1,1.4-0.9,3.5-0.1c-0.5,0-1.2,0.4-1.3,0.6
		c-0.1,0.1,0,0.1,0,0.1c2.6-0.3,5,2.5,4.9,5.1c-0.1,1.9-1.3,3.8-3.8,4.4c-0.3,0.4-0.9,2-0.9,2c-1.2,0.4-2.6,1.4-2.8,1.6
		c0,0,0-0.1,0,0l-0.1-0.1c-0.4-0.7-0.4-3-0.5-3.3c-2.5,0.2-3.9-2.1-4.3-2.4c-2.8-0.2-4.1-3.4-4.3-3.6C57.4,38.8,55.3,41.5,53.8,43.6
		z"/>
	<ellipse cx="59.1" cy="36.3" rx="0.6" ry="0.6"/>
	<path d="M83.6,46.4c0.1-0.2,2.5-5,6.2-7.6C91,41,93,41.9,94,42c0.8,1,2.3,2.3,3.7,2.4c0,0.8,0.1,2.2,0.8,3.2l0.1,0
		c-0.1,0.3,0,0.6,0,0.6c-0.5,0.2-1.8,1.5-2.4,2c-0.5,0-1.3,0.4-1.4,0.4c-1.3-0.8-2.4-0.4-2.5-0.3c-0.1,0-0.2,0.1,0,0.1
		c0.6,0,1.7,0.5,1.7,0.8c-2.4,0.1-2.9,1.1-3.1,1.4c-0.1,0.1,0,0.1,0.1,0.1c1.1-0.5,2.9-0.4,3.5-0.4c0.1,0.1,0.1,0,0.2,0.1
		c-0.3,0.4-0.7,0.8-0.9,1.6c0,0,0,0.3,0,0.6c0,0.2,0.1,0.1,0.1,0c0.3-0.6,0.7-1.1,0.9-1.2c0.2-0.1,0.4-0.3,0.6-0.6
		c0.2-0.2,0.5-0.4,0.7-0.4c0.6-0.2,1-0.8,1.1-0.9c0.5-0.7,1.2-1,1.2-1c0.8-0.4,2.3-0.9,2.4-0.9c0.5-0.2,0.6-0.5,0.6-0.6
		c0,0,0-0.2,0-0.4s0.1-0.3,0.2-0.3c0.9-0.7,2.3-0.8,2.4-0.8c0.4,0.8,0.8,1.7,0.9,2.4c-0.2,0.5-0.6,1.1-0.6,1.2
		c-1.9,0.3-2.3,1.2-2.3,1.2c-0.2,0.2,0.1,0.1,0.1,0.1c0.5-0.3,1.2-0.6,2-0.4c-1.4,1.1-1.2,2.5-1.2,2.6c0,0.2,0.2,0.1,0.3,0
		c0.3-0.8,1.4-2,2.2-2.3c0.1,0.5,0.5,1.4,0.9,1.7c0.1,0.1,0.2,0.1,0.2,0c-0.1-0.7-0.3-1.7-0.1-2.1c0.2-0.4,0.4-0.8,0.3-1.1
		c-0.1-0.2,0-0.3,0-0.4c0-0.1,0.2-0.3,0.2-0.4c0.2-0.3,0-0.4-0.1-0.5c-0.8-1.4-0.8-2.5-0.8-2.5c0.5-0.1,4.3-1.3,4.4-6.2
		c0.2-4.3-3.5-9.8-10.8-9.5c-1,0-3.3,0.3-5,2.3c-0.2-0.3-1.2-1.3-2.7-1.3c-1.4-0.1-5.2,1.3-4.5,5.3c-1.9,2.4-3.6,5.1-4.3,7
		c-0.1,0.4,0,1.5,0.4,2.2C83.5,46.5,83.6,46.5,83.6,46.4z M84.4,43.5c1.6-3.3,3.5-5,4.1-6.1c-1.2-2.7,2-4.6,3.4-4.4
		c2,0,2.4,2.1,2.4,2.1s1.8-2.9,4-2.9c-0.6,0.6-0.8,1-0.8,1l0,0.1c0,0,1-1.1,3-1.1c-0.7,0.5-1,1-1,1l0,0.1c0,0.1,1.4-0.9,3.5-0.1
		c-0.5,0-1.2,0.4-1.3,0.6c-0.1,0.1,0,0.1,0,0.1c2.6-0.3,5,2.5,4.9,5.1c-0.1,1.9-1.3,3.8-3.8,4.4c-0.3,0.4-0.9,2-0.9,2
		c-1.2,0.4-2.6,1.4-2.8,1.6c0,0,0-0.1,0,0l-0.1-0.1c-0.4-0.7-0.4-3-0.5-3.3c-2.5,0.2-3.9-2.1-4.3-2.4c-2.8-0.2-4.1-3.4-4.3-3.6
		c-2.1,1.3-4.2,4-5.7,6C84.4,43.5,84.3,43.5,84.4,43.5z"/>
	<circle cx="89.6" cy="36.3" r="0.6"/>
	<path d="M114,46.4c0.1-0.2,2.5-5,6.2-7.6c1.1,2.2,3.1,3.1,4.1,3.1c0.8,1,2.3,2.3,3.7,2.4c0,0.8,0.1,2.2,0.8,3.2l0.1,0
		c-0.1,0.3,0,0.6,0,0.6c-0.5,0.2-1.8,1.5-2.4,2c-0.5,0-1.3,0.4-1.4,0.4c-1.3-0.8-2.4-0.4-2.5-0.3c-0.1,0-0.2,0.1,0,0.1
		c0.6,0,1.7,0.5,1.7,0.8c-2.4,0.1-2.9,1.1-3.1,1.4c-0.1,0.1,0,0.1,0.1,0.1c1.1-0.5,2.9-0.4,3.5-0.4c0.1,0.1,0.1,0,0.2,0.1
		c-0.3,0.4-0.7,0.8-0.9,1.6c0,0,0,0.3,0,0.6c0,0.2,0.1,0.1,0.1,0c0.3-0.6,0.7-1.1,0.9-1.2c0.2-0.1,0.4-0.3,0.6-0.6
		c0.2-0.2,0.5-0.4,0.7-0.4c0.6-0.2,1-0.8,1.1-0.9c0.5-0.7,1.2-1,1.2-1c0.8-0.4,2.3-0.9,2.4-0.9c0.5-0.2,0.6-0.5,0.5-0.6
		c0,0,0-0.2,0-0.4s0.1-0.3,0.2-0.3c0.9-0.7,2.3-0.8,2.4-0.8c0.4,0.8,0.8,1.7,0.9,2.4c-0.2,0.5-0.6,1.1-0.6,1.2
		c-1.9,0.3-2.3,1.2-2.3,1.2c-0.2,0.2,0.1,0.1,0.1,0.1c0.5-0.3,1.2-0.6,2-0.4c-1.4,1.1-1.2,2.5-1.2,2.6c0,0.2,0.2,0.1,0.2,0
		c0.3-0.8,1.4-2,2.2-2.3c0.1,0.5,0.5,1.4,0.9,1.7c0.1,0.1,0.2,0.1,0.2,0c-0.1-0.7-0.3-1.7-0.1-2.1c0.2-0.4,0.4-0.8,0.3-1.1
		c0-0.2,0-0.3,0-0.4c0-0.1,0.2-0.3,0.2-0.4c0.2-0.3,0-0.4-0.1-0.5c-0.8-1.4-0.8-2.5-0.8-2.5c0.5-0.1,4.3-1.3,4.4-6.2
		c0.2-4.3-3.5-9.8-10.8-9.5c-1,0-3.2,0.3-5,2.3c-0.2-0.3-1.2-1.3-2.7-1.3c-1.4-0.1-5.2,1.3-4.5,5.3c-1.9,2.4-3.6,5.1-4.3,7
		c-0.1,0.4,0,1.5,0.4,2.2C113.9,46.5,113.9,46.5,114,46.4z M114.8,43.5c1.6-3.3,3.5-5,4.1-6.1c-1.2-2.7,2-4.6,3.4-4.4
		c2,0,2.4,2.1,2.4,2.1s1.8-2.9,4-2.9c-0.6,0.6-0.8,1-0.8,1l0,0.1c0,0,1-1.1,3-1.1c-0.7,0.5-1,1-1,1l0,0.1c0,0.1,1.4-0.9,3.5-0.1
		c-0.5,0-1.2,0.4-1.3,0.6c-0.1,0.1,0,0.1,0,0.1c2.6-0.3,5,2.5,4.9,5.1c-0.1,1.9-1.3,3.8-3.8,4.4c-0.3,0.4-0.8,2-0.8,2
		c-1.2,0.4-2.6,1.4-2.8,1.6c0,0,0-0.1,0,0l-0.1-0.1c-0.4-0.7-0.4-3-0.5-3.3c-2.5,0.2-4-2.1-4.3-2.4c-2.8-0.2-4.1-3.4-4.3-3.6
		c-2.1,1.3-4.2,4-5.7,6C114.8,43.5,114.7,43.5,114.8,43.5z"/>
	<circle cx="120" cy="36.3" r="0.6"/>
</g>
</svg>
