<?xml version="1.0" encoding="utf-8"?>
<!-- Generator: Adobe Illustrator 21.0.0, SVG Export Plug-In . SVG Version: 6.00 Build 0)  -->
<svg version="1.1" id="New_Shield" xmlns="http://www.w3.org/2000/svg" xmlns:xlink="http://www.w3.org/1999/xlink" x="0px" y="0px"
	 viewBox="0 0 337.9 332" style="enable-background:new 0 0 337.9 332;" xml:space="preserve">
<style type="text/css">
	.st0{fill:#FFFFFF;}
</style>
<g>
	<path class="st0" d="M268.9,257.8c-0.3,0.3-0.5,0.8-0.5,1.3s0.2,0.9,0.5,1.3c0.3,0.3,0.8,0.5,1.3,0.5c0.8,0,1.5-0.3,2.2-1v-3.7
		l-1.6,0.6C269.8,257.1,269.2,257.5,268.9,257.8z"/>
	<path class="st0" d="M232.3,257.8c-0.3,0.3-0.5,0.8-0.5,1.3s0.2,0.9,0.5,1.3c0.3,0.3,0.8,0.5,1.3,0.5c0.8,0,1.5-0.3,2.2-1v-3.7
		l-1.6,0.6C233.2,257.1,232.6,257.5,232.3,257.8z"/>
	<path class="st0" d="M211.4,257.8c-0.3,0.3-0.5,0.8-0.5,1.3s0.2,0.9,0.5,1.3c0.3,0.3,0.8,0.5,1.3,0.5c0.8,0,1.5-0.3,2.2-1v-3.7
		l-1.6,0.6C212.3,257.1,211.7,257.5,211.4,257.8z"/>
	<path class="st0" d="M274.6,209.7c0,0-5.2,0-5.5,0c0,0.3,0,21.1,0,21.3c0.2,0,5.7,0,5.7,0c8.2,0,10.3-6.7,10.3-10.7
		c0-3-0.9-5.6-2.6-7.5C280.8,210.8,278,209.7,274.6,209.7z"/>
	<path class="st0" d="M257.2,251.4c0.5-0.2,0.9-0.6,1.2-1.1c0.3-0.5,0.4-1,0.4-1.6s-0.2-1.1-0.5-1.6s-0.8-0.8-1.3-1
		c-0.6-0.2-1.5-0.3-2.8-0.3h-0.8v5.9h1C255.8,251.7,256.7,251.6,257.2,251.4z"/>
	<path class="st0" d="M165.2,257.8c-0.3,0.3-0.5,0.8-0.5,1.3s0.2,0.9,0.5,1.3c0.3,0.3,0.8,0.5,1.3,0.5c0.8,0,1.5-0.3,2.2-1v-3.7
		l-1.6,0.6C166.1,257.1,165.5,257.5,165.2,257.8z"/>
	<path class="st0" d="M207,222.2c0.3,0,6.5,0,6.9,0c-0.1-0.3-3.3-8.3-3.6-8.9C210.1,213.8,207.1,221.9,207,222.2z"/>
	<path class="st0" d="M260.9,193.7c2.1,0,4-0.8,5.4-2.3s2.2-3.6,2.2-5.9c0-4.8-3.2-8.2-7.5-8.2c-2.1,0-4,0.8-5.4,2.3
		s-2.1,3.6-2.1,5.9c0,2.3,0.8,4.4,2.1,5.9C256.9,192.9,258.8,193.7,260.9,193.7z"/>
	<path class="st0" d="M63.1,213.3c-0.2,0.6-3.2,8.6-3.3,8.9c0.3,0,6.5,0,6.9,0C66.6,221.8,63.4,213.8,63.1,213.3z"/>
	<path class="st0" d="M156.5,177.1c0,0-1.3,0-1.5,0c0,0.2,0,6.2,0,6.4c0.2,0,1.5,0,1.5,0c1.3,0,2.2-0.3,2.9-0.9
		c0.5-0.5,0.8-1.3,0.8-2.3v-0.1C160.1,178,158.9,177.1,156.5,177.1z"/>
	<polygon class="st0" points="187.7,289 191.8,289 189.6,283.9 	"/>
	<path class="st0" d="M101.2,252.6c-0.6-0.3-1.5-0.4-2.6-0.4h-1.7v7.6c0.8,0.4,1.5,0.6,2.4,0.6c1.1,0,2.1-0.4,2.8-1.2
		c0.7-0.8,1.1-1.8,1.1-3.1c0-0.8-0.2-1.5-0.5-2.1C102.2,253.4,101.8,252.9,101.2,252.6z"/>
	<path class="st0" d="M79.2,257.8c-0.3,0.3-0.5,0.8-0.5,1.3s0.2,0.9,0.5,1.3c0.3,0.3,0.8,0.5,1.3,0.5c0.8,0,1.5-0.3,2.2-1v-3.7
		l-1.6,0.6C80.1,257.1,79.6,257.5,79.2,257.8z"/>
	<path class="st0" d="M48.5,0L0,48.6V332h289.3l48.6-48.5V0H48.5z M277.7,173.4h11.7v3.7h-8v5.5h8v3.7h-8v10.5h-3.7V173.4z
		 M252.7,177c2.1-2.3,5-3.6,8.3-3.6s6.2,1.2,8.3,3.6c2,2.2,3.1,5.2,3.1,8.5c0,3.2-1.1,6.2-3,8.4c-2.1,2.4-5,3.7-8.4,3.7
		c-3.2,0-6.2-1.3-8.2-3.7c-2-2.2-3-5.2-3-8.4C249.6,182.2,250.7,179.2,252.7,177z M233.5,252c-1.3,0-2.6,0.7-3.9,2.1v-2.7
		c1-1.1,2.3-1.7,4.1-1.7c1.3,0,2.4,0.3,3.2,1c0.3,0.2,0.5,0.5,0.7,0.9s0.4,0.7,0.4,1.1s0.1,1.1,0.1,2.1v5.3c0,0.4,0.1,0.6,0.4,0.6
		c0.3,0,0.8-0.2,1.4-0.7v1.5c-0.6,0.4-1,0.6-1.3,0.7s-0.7,0.2-1.1,0.2c-1,0-1.7-0.4-1.9-1.2c-1,0.8-2.1,1.2-3.3,1.2
		c-0.9,0-1.6-0.3-2.2-0.9c-0.6-0.6-0.9-1.3-0.9-2.1c0-0.8,0.3-1.5,0.8-2.1c0.6-0.6,1.4-1.1,2.4-1.5l3.1-1.1V254
		C235.7,252.7,234.9,252,233.5,252z M234.5,213.8c0,0.7,0,22.2,0,22.2h-4.7v-31.3h3.9c0,0,17.2,21.8,17.6,22.4c0-0.7,0-22.4,0-22.4
		h4.7V236h-4.1C251.9,236,234.9,214.4,234.5,213.8z M250.7,243.5h4.7c1.9,0,3.4,0.5,4.5,1.4s1.7,2.2,1.7,3.8c0,1.1-0.3,2-0.8,2.8
		s-1.3,1.4-2.4,1.8c0.6,0.4,1.2,0.9,1.8,1.6c0.6,0.7,1.4,1.9,2.4,3.6c0.7,1.1,1.2,1.9,1.6,2.4l1,1.3H262l-0.8-1.2
		c0,0-0.1-0.1-0.2-0.2l-0.5-0.7l-0.8-1.4l-0.9-1.5c-0.6-0.8-1.1-1.4-1.5-1.8c-0.5-0.5-0.9-0.8-1.3-1s-1-0.3-1.9-0.3h-0.7v8.2h-2.7
		L250.7,243.5L250.7,243.5z M225.5,173.4c0,0,5.2,7.4,5.3,7.6c0.1-0.2,5.4-7.6,5.4-7.6h4.6c0,0-8,11.3-8,11.4c0,0.1,0,12.4,0,12.4
		H229v-12.4c0-0.1-8-11.3-8-11.3L225.5,173.4z M218.9,252.1v-0.2l4.6-4.5v2.6h3.9v2.2h-3.9v6.1c0,1.4,0.6,2.1,1.8,2.1
		c0.9,0,1.8-0.3,2.8-0.9v2.3c-0.9,0.5-2,0.8-3.1,0.8s-2.1-0.3-2.8-1c-0.2-0.2-0.4-0.4-0.6-0.7c-0.2-0.2-0.3-0.6-0.4-1
		c-0.1-0.4-0.2-1.2-0.2-2.3v-5.5H218.9z M203,252.6c-0.4-0.5-1-0.8-1.8-0.8c-1,0-2,0.5-2.8,1.5v9h-2.5v-6.9c0-1.4-0.2-2.3-0.6-2.9
		s-1-0.8-1.9-0.8c-0.5,0-1,0.1-1.4,0.3s-0.9,0.6-1.5,1.2v9h-2.4v-12.4h2.4v1.6c1.2-1.2,2.5-1.9,3.7-1.9c1.6,0,2.8,0.7,3.6,2.2
		c1.3-1.5,2.7-2.3,4.1-2.3c1.2,0,2.2,0.4,3,1.3c0.8,0.9,1.2,2.2,1.2,4v7.3h-2.4v-7C203.6,253.9,203.4,253.1,203,252.6z M181.1,262
		c-0.7,0.3-1.3,0.5-2,0.5c-0.8,0-1.5-0.2-2.2-0.6s-1.2-0.9-1.5-1.6s-0.5-1.8-0.5-3.3v-7.1h2.4v7c0,1.3,0.2,2.2,0.6,2.7
		c0.4,0.5,1,0.8,2,0.8c1.2,0,2.2-0.6,3-1.7v-8.8h2.4v12.4h-2.4v-1.6C182.3,261.3,181.7,261.7,181.1,262z M174.1,236v-31.3h5V231
		h12.3v5H174.1z M148.8,245.9v-2.4h15.7v2.4H158v16.4h-2.7v-16.4H148.8z M128.5,236.4c-6,0-9.6-2.9-11.6-5.4
		c-2.3-2.8-3.6-6.7-3.6-10.2c0-9.5,6.5-16.5,15.4-16.5c2.9,0,5.7,0.8,9.5,2.5h0.1l0.2,6.1l-0.2-0.1l-0.6-0.4
		c-3.3-2.1-6.1-3.1-9.1-3.1c-2.8,0-5.5,1.1-7.3,3.1c-1.9,2-2.9,4.8-2.9,7.9c0,3.2,1,5.9,2.9,7.9s4.5,3,7.6,3c3,0,6.2-1.2,9.2-3.3
		l0.7-0.5l0.2-0.1v6.1h-0.1C136.3,235.1,133.3,236.4,128.5,236.4z M130.8,256.1c0,1.9-0.6,3.4-1.7,4.6c-1.1,1.2-2.6,1.8-4.4,1.8
		c-0.8,0-1.7-0.2-2.6-0.5v6.6h-2.5v-18.7h4.3c2.2,0,3.9,0.5,5.1,1.6C130.2,252.6,130.8,254.2,130.8,256.1z M111.4,252
		c-1.3,0-2.6,0.7-3.9,2.1v-2.7c1-1.1,2.3-1.7,4.1-1.7c1.3,0,2.4,0.3,3.2,1c0.3,0.2,0.5,0.5,0.7,0.9s0.4,0.7,0.4,1.1
		c0.1,0.4,0.1,1.1,0.1,2.1v5.3c0,0.4,0.1,0.6,0.4,0.6s0.8-0.2,1.4-0.7v1.5c-0.6,0.4-1,0.6-1.3,0.7s-0.7,0.2-1.1,0.2
		c-1,0-1.7-0.4-1.9-1.2c-1,0.8-2.1,1.2-3.3,1.2c-0.9,0-1.6-0.3-2.2-0.9s-0.9-1.3-0.9-2.1c0-0.8,0.3-1.5,0.8-2.1
		c0.6-0.6,1.4-1.1,2.4-1.5l3.1-1.1V254C113.6,252.7,112.9,252,111.4,252z M136.6,252c-1.3,0-2.6,0.7-3.9,2.1v-2.7
		c0.9-1.1,2.3-1.7,4.1-1.7c1.3,0,2.4,0.3,3.2,1c0.3,0.2,0.5,0.5,0.7,0.9s0.4,0.7,0.4,1.1c0.1,0.4,0.1,1.1,0.1,2.1v5.3
		c0,0.4,0.1,0.6,0.4,0.6c0.3,0,0.8-0.2,1.4-0.7v1.5c-0.6,0.4-1,0.6-1.3,0.7s-0.7,0.2-1.1,0.2c-1,0-1.7-0.4-1.9-1.2
		c-1,0.8-2.1,1.2-3.3,1.2c-0.9,0-1.6-0.3-2.2-0.9c-0.6-0.6-0.9-1.3-0.9-2.1c0-0.8,0.3-1.5,0.8-2.1c0.6-0.6,1.4-1.1,2.4-1.5l3.1-1.1
		V254C138.9,252.7,138.1,252,136.6,252z M133.2,197.2v-23.8h12.5v3.8H137v6.1h8.5v3.8H137v6.3h9v3.8L133.2,197.2z M144.7,204.8h5
		c0,0,0,12.2,0,12.9c0.4-0.5,10.6-12.9,10.6-12.9h6.3c0,0-12.1,14.6-12.3,14.8c0.1,0.2,15.2,16.4,15.2,16.4h-6.8
		c0,0-12.6-13.6-13-14.1c0,0.6,0,14.1,0,14.1h-5V204.8z M162.9,188.3c0.7,1.1,1.5,2.5,2.2,3.8c0.8,1.5,1.3,2.3,2.6,4.2l0.6,1h-4.5
		l-2.8-4.9c-2.7-4.7-3.8-5-5.1-5c0,0-0.7,0-0.8,0c0,0.2,0,10,0,10h-3.8v-23.8h5.6c2.2,0,4,0.6,5.2,1.8c1.3,1.2,2,2.9,2,5
		c0,2.6-1.1,4.6-3.1,5.7C161.6,186.6,162.2,187.3,162.9,188.3z M166.3,252c-1.3,0-2.6,0.7-3.9,2.1v-2.7c1-1.1,2.3-1.7,4.1-1.7
		c1.3,0,2.4,0.3,3.2,1c0.3,0.2,0.5,0.5,0.7,0.9s0.4,0.7,0.4,1.1c0.1,0.4,0.1,1.1,0.1,2.1v5.3c0,0.4,0.1,0.6,0.4,0.6
		c0.3,0,0.8-0.2,1.4-0.7v1.5c-0.6,0.4-1,0.6-1.3,0.7s-0.7,0.2-1.1,0.2c-1,0-1.7-0.4-1.9-1.2c-1,0.8-2.1,1.2-3.3,1.2
		c-0.9,0-1.6-0.3-2.2-0.9s-0.9-1.3-0.9-2.1c0-0.8,0.3-1.5,0.8-2.1c0.6-0.6,1.4-1.1,2.4-1.5l3.1-1.1V254
		C168.6,252.7,167.8,252,166.3,252z M172.5,195.6L172.5,195.6l-0.1-5.8l0.2,0.3l0.6,0.8c1.4,2,3.2,3.2,5.1,3.2c2.2,0,3-1.5,3-2.5
		c0-0.9-0.4-1.8-1.3-2.6c-0.3-0.3-0.8-0.7-1.4-1.1l-1.1-0.7l-0.6-0.4c-2.4-1.6-4.6-3.4-4.6-6.7c0-1.9,0.6-3.6,1.8-4.8
		s2.9-1.8,4.8-1.8c1.7,0,3.4,0.6,4.9,1.7l0.1,0.1l0,0v5l-0.2-0.2l-0.5-0.6c-1.4-1.5-3-2.3-4.5-2.3c-1.7,0-2.9,1-2.9,2.3
		c0,0.9,0.4,1.6,1.3,2.3c0.4,0.3,0.8,0.6,1.4,1l1.6,1c2.3,1.5,4.7,3.3,4.7,7.2c0,1.8-0.6,3.5-1.8,4.7c-1.1,1.2-2.7,1.9-4.4,1.9
		C176.2,197.8,174.3,197.1,172.5,195.6z M190.2,197.2v-23.8h3.8v23.8H190.2z M205,227.1c-0.1,0.2-3.4,8.9-3.4,8.9h-5.1l12.1-31.4
		h3.5l12.6,31.4h-5.2c0,0-3.5-8.7-3.6-8.9C215.7,227.1,205.2,227.1,205,227.1z M199.3,177.2v-3.8h18.1v3.8h-7.1v20h-3.8v-20H199.3z
		 M212.5,252c-1.3,0-2.6,0.7-3.9,2.1v-2.7c0.9-1.1,2.3-1.7,4.1-1.7c1.3,0,2.4,0.3,3.2,1c0.3,0.2,0.5,0.5,0.7,0.9s0.4,0.7,0.4,1.1
		c0.1,0.4,0.1,1.1,0.1,2.1v5.3c0,0.4,0.1,0.6,0.4,0.6c0.3,0,0.8-0.2,1.4-0.7v1.5c-0.6,0.4-1,0.6-1.3,0.7s-0.7,0.2-1.1,0.2
		c-1,0-1.7-0.4-1.9-1.2c-1,0.8-2.1,1.2-3.3,1.2c-0.9,0-1.6-0.3-2.2-0.9c-0.6-0.6-0.9-1.3-0.9-2.1c0-0.8,0.3-1.5,0.8-2.1
		c0.6-0.6,1.4-1.1,2.4-1.5l3.1-1.1V254C214.8,252.7,214,252,212.5,252z M121.4,48.5h97v48.9c0,11.5-8.6,45.1-48.1,61.6l-0.4,0.2
		l-0.4-0.2c-18.5-7.7-32.1-19.7-40.5-35.5c-6-11.4-7.6-22.1-7.6-26.1V48.5z M112.1,173.4c0,0,5.7,14.9,5.9,15.4
		c0.2-0.5,5.9-15.4,5.9-15.4h3.8l-9,24h-1.2l-9.2-24H112.1z M99.1,173.4h3.8v23.8h-3.8V173.4z M101,229.1c1.1-1.2,1.6-3,1.6-6.2
		v-18.1h5v18.9c0,3.9-1.1,7.1-3.1,9.3c-2.2,2.3-5.4,3.5-9.5,3.5c-3.2,0-6.1-1.1-8.2-3c-2.4-2.2-3.7-5.4-3.7-9.4v-19.3h5v18.4
		c0,3.2,0.4,4.6,1.5,5.8c1.4,1.6,3.2,2.4,5.5,2.4C98.4,231.4,100.2,230,101,229.1z M105.6,256.1c0,1.9-0.6,3.4-1.7,4.6
		c-1.2,1.2-2.6,1.8-4.4,1.8c-0.8,0-1.7-0.2-2.6-0.5v6.6h-2.5v-18.7h4.3c2.2,0,3.9,0.5,5.1,1.6C105,252.6,105.6,254.2,105.6,256.1z
		 M91.3,247.2c-0.3,0.3-0.6,0.4-1,0.4s-0.7-0.1-1-0.4s-0.4-0.6-0.4-1s0.1-0.7,0.4-1s0.6-0.4,1-0.4s0.7,0.1,1,0.4
		c0.3,0.3,0.4,0.6,0.4,1C91.7,246.5,91.6,246.9,91.3,247.2z M91.5,249.9v12.4h-2.4v-12.4H91.5z M80.4,252c-1.3,0-2.6,0.7-3.9,2.1
		v-2.7c0.9-1.1,2.3-1.7,4.1-1.7c1.3,0,2.4,0.3,3.2,1c0.3,0.2,0.5,0.5,0.7,0.9s0.3,0.7,0.4,1.1c0.1,0.4,0.1,1.1,0.1,2.1v5.3
		c0,0.4,0.1,0.6,0.4,0.6s0.8-0.2,1.4-0.7v1.5c-0.6,0.4-1,0.6-1.3,0.7s-0.7,0.2-1.1,0.2c-1,0-1.7-0.4-1.9-1.2c-1,0.8-2.1,1.2-3.3,1.2
		c-0.9,0-1.6-0.3-2.2-0.9s-0.9-1.3-0.9-2.1c0-0.8,0.3-1.5,0.8-2.1c0.6-0.6,1.4-1.1,2.4-1.5l3.1-1.1V254
		C82.6,252.7,81.9,252,80.4,252z M73.7,173.4h3c0,0,13,16.6,13.4,17c0-0.5,0-17,0-17h3.6v23.8h-3.1c0,0-12.9-16.5-13.2-16.9
		c0,0.5,0,16.9,0,16.9h-3.6v-23.8H73.7z M49.7,173.4h3.8v14c0,2.4,0.3,3.5,1.1,4.4c1.1,1.2,2.5,1.8,4.2,1.8c2.6,0,4-1.1,4.5-1.7
		c0.8-0.9,1.2-2.3,1.2-4.7v-13.8h3.8v14.3c0,2.9-0.8,5.4-2.4,7c-1.7,1.8-4.1,2.7-7.2,2.7c-2.4,0-4.6-0.8-6.2-2.3
		c-1.8-1.7-2.8-4.1-2.8-7.1V173.4z M61.4,204.6h3.5L77.5,236h-5.1c0,0-3.6-8.7-3.6-8.9c-0.2,0-10.7,0-10.8,0
		c-0.1,0.2-3.4,8.9-3.4,8.9h-5.2L61.4,204.6z M51.2,243.5l5.2,12.9l5.2-12.9h2.5l5.2,12.9l5.1-12.9h2.7l-7.6,18.9H69l-6.1-15.3
		l-6.2,15.3H56l-7.6-18.9H51.2z M61.8,293.9h-2.1l-7.6-9v9h-2.4v-12.7h2.2l7.6,8.9v-8.9h2.4v12.7H61.8z M83.1,293.9h-8.4v-12.7h8.2
		v1.9h-5.8v3.3h5.5v1.9h-5.5v3.6H83v2H83.1z M109.1,294.1h-0.8l-4-9.5l-4,9.5h-0.8l-5.3-12.9h2.5l3.2,7.9l3.3-7.9h2.1l3.4,7.9
		l3.2-7.9h2.5L109.1,294.1z M151.7,293.9H140l7.4-10.8h-7v-1.9h11.2l-7.4,10.8h7.5V293.9z M172,293.9h-8.4v-12.7h8.2v1.9H166v3.3
		h5.5v1.9H166v3.6h5.9v2H172z M193.9,293.9l-1.3-3.1h-5.7l-1.2,3.1h-2.6l5.3-12.7h2.5l5.6,12.7H193.9z M216.8,293.9h-8.7v-12.7h2.5
		V292h6.2V293.9z M238,293.9l-1.3-3.1H231l-1.2,3.1h-2.6l5.3-12.7h2.5l5.6,12.7H238z M264.4,293.9h-2.1l-7.6-9v9h-2.4v-12.7h2.2
		l7.6,8.9v-8.9h2.4L264.4,293.9L264.4,293.9z M288.5,290.9c-0.6,1-1.4,1.7-2.5,2.2s-2.3,0.8-3.6,0.8h-5.2v-12.7h5.3
		c1.3,0,2.5,0.3,3.5,0.8s1.8,1.3,2.4,2.3s0.9,2.1,0.9,3.3C289.4,288.8,289.1,289.9,288.5,290.9z M290,275.5H49.5v-1.4H290V275.5z
		 M270,252c-1.3,0-2.6,0.7-3.9,2.1v-2.7c0.9-1.1,2.3-1.7,4.1-1.7c1.3,0,2.4,0.3,3.2,1c0.3,0.2,0.5,0.5,0.7,0.9s0.3,0.7,0.4,1.1
		c0.1,0.4,0.1,1.1,0.1,2.1v5.3c0,0.4,0.1,0.6,0.4,0.6s0.8-0.2,1.4-0.7v1.5c-0.6,0.4-1,0.6-1.3,0.7s-0.7,0.2-1.1,0.2
		c-1,0-1.7-0.4-1.9-1.2c-1,0.8-2.1,1.2-3.3,1.2c-0.9,0-1.6-0.3-2.2-0.9s-0.9-1.3-0.9-2.1c0-0.8,0.3-1.5,0.8-2.1
		c0.6-0.6,1.4-1.1,2.4-1.5l3.1-1.1V254C272.3,252.7,271.5,252,270,252z M281.6,259.7c0.4,0.5,1,0.8,2,0.8c1.2,0,2.2-0.6,3-1.7V250
		h2.4v12.4h-2.4v-1.6c-0.5,0.6-1.1,1-1.8,1.3c-0.7,0.3-1.3,0.5-2,0.5c-0.8,0-1.5-0.2-2.2-0.6s-1.2-0.9-1.5-1.6s-0.5-1.8-0.5-3.3V250
		h2.4v7C281.1,258.3,281.2,259.2,281.6,259.7z M286.3,231.2c-2.8,3.2-6.6,4.8-11,4.8h-11.1v-31.3h11.1c4.7,0,8.7,1.8,11.4,5.1
		c2.3,2.8,3.6,6.6,3.6,10.6C290.2,224.4,288.8,228.4,286.3,231.2z"/>
	<path class="st0" d="M125.6,70.1c0.1-0.2,2.6-5,6.3-7.7c1.1,2.2,3.1,3.1,4.2,3.2c0.8,1,2.3,2.3,3.7,2.4c0,0.8,0.1,2.2,0.8,3.2h0.1
		c-0.1,0.3,0,0.6,0,0.6c-0.5,0.2-1.9,1.5-2.4,2c-0.5,0-1.4,0.4-1.4,0.4c-1.3-0.8-2.4-0.4-2.5-0.3c-0.1,0-0.2,0.1,0,0.1
		c0.6,0,1.7,0.6,1.7,0.8c-2.5,0.1-2.9,1.1-3.1,1.4c-0.1,0.1,0,0.1,0.1,0.1c1.1-0.5,2.9-0.4,3.5-0.4c0.1,0.1,0.1,0,0.2,0.1
		c-0.3,0.4-0.7,0.8-0.9,1.6c0,0,0,0.3,0,0.6c0,0.2,0.1,0.1,0.1,0c0.3-0.6,0.7-1.1,0.9-1.2s0.4-0.3,0.6-0.6c0.2-0.2,0.5-0.4,0.7-0.4
		c0.6-0.2,1-0.8,1.1-0.9c0.5-0.7,1.2-1,1.2-1c0.8-0.4,2.4-0.9,2.4-0.9c0.5-0.2,0.6-0.5,0.6-0.6c0,0,0-0.2,0-0.4
		c0-0.2,0.1-0.3,0.2-0.4c1-0.7,2.3-0.8,2.4-0.9c0.4,0.8,0.8,1.7,0.9,2.4c-0.2,0.5-0.6,1.1-0.6,1.2c-1.9,0.3-2.3,1.2-2.3,1.2
		c-0.2,0.2,0.1,0.1,0.1,0.1c0.5-0.3,1.2-0.6,2-0.4c-1.4,1.1-1.2,2.5-1.2,2.6c0,0.2,0.2,0.1,0.2,0c0.3-0.8,1.4-2.1,2.3-2.3
		c0.1,0.5,0.5,1.4,0.9,1.7c0.1,0.1,0.2,0.1,0.2,0c-0.1-0.7-0.3-1.7-0.1-2.1s0.4-0.8,0.3-1.2c-0.1-0.2,0-0.3,0-0.4s0.2-0.3,0.2-0.4
		c0.2-0.3,0-0.4-0.1-0.5c-0.8-1.5-0.8-2.5-0.8-2.5c0.5-0.1,4.3-1.3,4.5-6.3c0.2-4.4-3.5-9.8-10.8-9.6c-1,0-3.3,0.3-5,2.3
		c-0.2-0.3-1.2-1.3-2.7-1.3c-1.4-0.1-5.2,1.3-4.5,5.4c-1.9,2.4-3.6,5.1-4.3,7.1C125.2,68.3,125.2,69.4,125.6,70.1
		C125.5,70.1,125.5,70.1,125.6,70.1z M126.4,67.1c1.6-3.4,3.5-5,4.1-6.1c-1.2-2.7,2-4.7,3.5-4.5c2,0,2.4,2.1,2.4,2.1s1.8-2.9,4.1-3
		c-0.6,0.6-0.8,1-0.8,1v0.1c0,0,1-1.1,3.1-1.1c-0.7,0.5-1,1-1,1v0.1c0,0.1,1.4-0.9,3.6-0.1c-0.5,0-1.2,0.4-1.3,0.6
		c-0.1,0.1,0,0.1,0,0.1c2.6-0.3,5,2.5,4.9,5.1c-0.1,1.9-1.3,3.8-3.8,4.4c-0.3,0.4-0.9,2-0.9,2c-1.2,0.4-2.6,1.4-2.8,1.7
		c0,0,0-0.1,0,0l-0.1-0.1c-0.4-0.7-0.4-3-0.5-3.3c-2.5,0.2-4-2.2-4.3-2.4c-2.9-0.2-4.1-3.4-4.3-3.6c-2.2,1.3-4.3,4-5.7,6.1
		C126.4,67.1,126.3,67.1,126.4,67.1z"/>
	<path class="st0" d="M156.4,70.1c0.1-0.2,2.6-5,6.3-7.7c1.1,2.2,3.1,3.1,4.2,3.2c0.8,1,2.3,2.3,3.7,2.4c0,0.8,0.1,2.2,0.8,3.2h0.1
		c-0.1,0.3,0,0.6,0,0.6c-0.5,0.2-1.8,1.5-2.4,2c-0.5,0-1.4,0.4-1.4,0.4c-1.3-0.8-2.4-0.4-2.5-0.3c-0.1,0-0.2,0.1,0,0.1
		c0.6,0,1.7,0.6,1.7,0.8c-2.5,0.1-2.9,1.1-3.1,1.4c-0.1,0.1,0,0.1,0.1,0.1c1.1-0.5,2.9-0.4,3.5-0.4c0.1,0.1,0.1,0,0.2,0.1
		c-0.3,0.4-0.7,0.8-0.9,1.6c0,0,0,0.3,0,0.6c0,0.2,0.1,0.1,0.1,0c0.3-0.6,0.7-1.1,0.9-1.2s0.4-0.3,0.6-0.6c0.2-0.2,0.5-0.4,0.7-0.4
		c0.6-0.2,1-0.8,1.1-0.9c0.5-0.7,1.2-1,1.2-1c0.8-0.4,2.4-0.9,2.4-0.9c0.5-0.2,0.6-0.5,0.6-0.6c0,0,0-0.2,0-0.4
		c0-0.2,0.1-0.3,0.2-0.4c1-0.7,2.3-0.8,2.4-0.9c0.4,0.8,0.8,1.7,0.9,2.4c-0.2,0.5-0.6,1.1-0.6,1.2c-1.9,0.3-2.3,1.2-2.3,1.2
		c-0.2,0.2,0.1,0.1,0.1,0.1c0.5-0.3,1.3-0.6,2-0.4c-1.4,1.1-1.2,2.5-1.2,2.6c0,0.2,0.2,0.1,0.3,0c0.3-0.8,1.4-2.1,2.3-2.3
		c0.1,0.5,0.5,1.4,0.9,1.7c0.1,0.1,0.2,0.1,0.2,0c-0.1-0.7-0.3-1.7-0.1-2.1s0.4-0.8,0.3-1.2c-0.1-0.2,0-0.3,0-0.4s0.2-0.3,0.2-0.4
		c0.2-0.3,0-0.4-0.1-0.5c-0.8-1.5-0.8-2.5-0.8-2.5c0.5-0.1,4.3-1.3,4.5-6.3c0.2-4.4-3.5-9.8-10.8-9.6c-1,0-3.3,0.3-5,2.3
		c-0.2-0.3-1.2-1.3-2.7-1.3c-1.5-0.1-5.2,1.3-4.5,5.4c-1.9,2.4-3.6,5.1-4.3,7.1c-0.1,0.4,0,1.5,0.4,2.2
		C156.3,70.1,156.3,70.1,156.4,70.1z M157.2,67.1c1.6-3.4,3.5-5,4.1-6.1c-1.2-2.7,2-4.7,3.4-4.5c2,0,2.4,2.1,2.4,2.1s1.8-2.9,4.1-3
		c-0.6,0.6-0.8,1-0.8,1v0.1c0,0,1-1.1,3-1.1c-0.7,0.5-1,1-1,1v0.1c0,0.1,1.4-0.9,3.6-0.1c-0.5,0-1.2,0.4-1.3,0.6
		c-0.1,0.1,0,0.1,0,0.1c2.6-0.3,5,2.5,4.9,5.1c-0.1,1.9-1.4,3.8-3.8,4.4c-0.3,0.4-0.9,2-0.9,2c-1.2,0.4-2.6,1.4-2.8,1.7
		c0,0,0-0.1,0,0l-0.1-0.1c-0.4-0.7-0.4-3-0.5-3.3c-2.5,0.2-4-2.2-4.3-2.4c-2.9-0.2-4.1-3.4-4.3-3.6
		C160.7,62.4,158.6,65.1,157.2,67.1C157.2,67.1,157.1,67.1,157.2,67.1z"/>
	<circle class="st0" cx="193" cy="59.8" r="0.6"/>
	<path class="st0" d="M187,70.1c0.1-0.2,2.6-5,6.3-7.7c1.1,2.2,3.1,3.1,4.2,3.2c0.8,1,2.3,2.3,3.7,2.4c0,0.8,0.1,2.2,0.8,3.2h0.1
		c-0.1,0.3,0,0.6,0,0.6c-0.5,0.2-1.9,1.5-2.4,2c-0.5,0-1.4,0.4-1.4,0.4c-1.3-0.8-2.4-0.4-2.5-0.3c-0.1,0-0.2,0.1,0,0.1
		c0.6,0,1.7,0.6,1.7,0.8c-2.5,0.1-2.9,1.1-3.1,1.4c-0.1,0.1,0,0.1,0.1,0.1c1.1-0.5,2.9-0.4,3.5-0.4c0.1,0.1,0.1,0,0.2,0.1
		c-0.3,0.4-0.7,0.8-0.9,1.6c0,0,0,0.3,0,0.6c0,0.2,0.1,0.1,0.1,0c0.3-0.6,0.7-1.1,0.9-1.2s0.4-0.3,0.6-0.6c0.2-0.2,0.5-0.4,0.7-0.4
		c0.6-0.2,1-0.8,1.1-0.9c0.5-0.7,1.2-1,1.2-1c0.8-0.4,2.4-0.9,2.4-0.9c0.5-0.2,0.6-0.5,0.6-0.6c0,0,0-0.2,0-0.4
		c0-0.2,0.1-0.3,0.2-0.4c1-0.7,2.3-0.8,2.4-0.9c0.5,0.8,0.8,1.7,0.9,2.4c-0.2,0.5-0.6,1.1-0.6,1.2c-1.9,0.3-2.3,1.2-2.3,1.2
		c-0.2,0.2,0.1,0.1,0.1,0.1c0.5-0.3,1.3-0.6,2-0.4c-1.4,1.1-1.2,2.5-1.2,2.6c0,0.2,0.2,0.1,0.3,0c0.3-0.8,1.4-2.1,2.3-2.3
		c0.1,0.5,0.5,1.4,0.9,1.7c0.1,0.1,0.2,0.1,0.2,0c-0.1-0.7-0.3-1.7-0.1-2.1s0.4-0.8,0.3-1.2c0-0.2,0-0.3,0-0.4s0.2-0.3,0.2-0.4
		c0.2-0.3,0-0.4-0.1-0.5c-0.8-1.5-0.8-2.5-0.8-2.5c0.5-0.1,4.3-1.3,4.5-6.3c0.2-4.4-3.5-9.8-10.8-9.6c-1,0-3.3,0.3-5,2.3
		c-0.2-0.3-1.2-1.3-2.7-1.3c-1.5-0.1-5.2,1.3-4.5,5.4c-1.9,2.4-3.6,5.1-4.3,7.1c-0.1,0.4,0,1.5,0.4,2.2
		C186.9,70.1,186.9,70.1,187,70.1z M187.7,67.1c1.6-3.4,3.5-5,4.1-6.1c-1.2-2.7,2-4.7,3.4-4.5c2,0,2.4,2.1,2.4,2.1s1.8-2.9,4.1-3
		c-0.7,0.6-0.8,1-0.8,1v0.1c0,0,1-1.1,3-1.1c-0.7,0.5-1,1-1,1v0.1c0,0.1,1.4-0.9,3.6-0.1c-0.5,0-1.3,0.4-1.3,0.6
		c-0.1,0.1,0,0.1,0,0.1c2.6-0.3,5,2.5,4.9,5.1c-0.1,1.9-1.4,3.8-3.8,4.4c-0.3,0.4-0.9,2-0.9,2c-1.2,0.4-2.6,1.4-2.8,1.7
		c0,0,0-0.1,0,0l-0.1-0.1c-0.4-0.7-0.4-3-0.5-3.3c-2.5,0.2-4-2.2-4.3-2.4c-2.9-0.2-4.1-3.4-4.3-3.6
		C191.2,62.4,189.1,65.1,187.7,67.1C187.8,67.1,187.7,67.1,187.7,67.1z"/>
	<path class="st0" d="M169.9,157c38-16.1,46.4-48.4,46.4-59.5V77.7c-2.8,0-5.6,0.7-8,2.2c-4.5,2.7-10.4,2.7-15,0
		c-4.8-2.8-11-2.8-15.8-0.1l-0.1,0.1c-4.5,2.6-10.4,2.7-14.9,0.1l-0.1-0.1c-4.7-2.8-10.9-2.8-15.7-0.1l0,0l-0.2,0.1
		c-4.5,2.7-10.4,2.7-15,0l-0.3-0.2l0,0c-2.3-1.3-5-2-7.6-2l0,0v19.9c0,3.9,1.5,14.1,7.4,25.1C139,137.9,152.1,149.4,169.9,157z
		 M175.6,152.5l-5.7-4.3l-5.7,4.3l2.2-6.8l-6-4.3h7.3l2.2-6.9l2.2,6.9h7.3l-6,4.3L175.6,152.5z M186.3,87.6l2.2-6.9l2.2,6.9h7.3
		l-6,4.3l2.2,6.8l-5.7-4.3l-5.7,4.3l2.2-6.8l-6-4.3H186.3z M170.4,103.4c4.5-3.1,9-3.7,13.4-1.8c3.7,1.6,6.4,1.8,10,1l0.1,0.1v21
		c-2.9,1.5-5.2,1.8-9.4-0.4c-5.3-2.7-10.7-1.3-14.1,1.6V103.4z M170.4,126.1c3.1-3,8.4-4.8,13.7-2.1c4.7,2.5,7.4,2,10.6,0.3l0.3-0.1
		v-21.1l1.1,0.5v21.1c-4.3,2.1-8.1,2.3-11.4,0.6c-4.3-2.2-10.4-2.7-14.2,2.3v-1.5H170.4z M169.4,103.4v21.4c-2.2-1.8-5.1-3-8.3-3
		c-1.9,0-3.9,0.4-5.8,1.4c-4.2,2.2-6.6,1.9-9.4,0.4v-21l0.1-0.1c3.6,0.8,6.4,0.6,10-1C160.4,99.7,164.9,100.3,169.4,103.4z
		 M145.1,124.4c3.2,1.7,5.9,2.2,10.6-0.3c5.2-2.7,10.6-0.9,13.7,2.1v1.6c-3.8-4.9-9.9-4.7-14.2-2.3c-3.5,2-7.4,1.8-11.4-0.6v-21.2
		l1.1-0.5v21.1L145.1,124.4z M149.1,87.7l2.2-6.9l2.2,6.9h7.3l-6,4.3l2.2,6.8l-5.7-4.3l-5.7,4.3l2.2-6.8l-6-4.3H149.1z M139.7,122.2
		l-0.2,0.2c-0.2,0.3-0.6,0.4-0.9,0.4c-0.6,0-1.2-0.5-1.2-1.1s0.5-1.1,1.2-1.1c0.4,0,0.7,0.2,0.9,0.4l0.2,0.2h1.9V119h-1.9l-0.2,0.2
		c-0.2,0.3-0.6,0.4-0.9,0.4c-0.6,0-1.2-0.5-1.2-1.1s0.5-1.1,1.2-1.1c0.4,0,0.7,0.2,0.9,0.4l0.2,0.2h1.9v-2.3h-1.9l-0.2,0.2
		c-0.2,0.3-0.6,0.4-0.9,0.4c-0.6,0-1.2-0.5-1.2-1.1s0.5-1.1,1.2-1.1c0.4,0,0.7,0.2,0.9,0.4l0.2,0.2h1.9v-2.3h-1.9l-0.2,0.2
		c-0.2,0.3-0.6,0.4-0.9,0.4c-0.6,0-1.2-0.5-1.2-1.1s0.5-1.1,1.2-1.1c0.4,0,0.7,0.2,0.9,0.4l0.2,0.2h1.9v-2.3h-1.9l-0.2,0.2
		c-0.2,0.3-0.6,0.4-0.9,0.4c-0.6,0-1.2-0.5-1.2-1.1s0.5-1.1,1.2-1.1c0.4,0,0.7,0.2,0.9,0.4l0.2,0.2h1.9v-2.3h-1.9l-0.2,0.2
		c-0.2,0.3-0.6,0.4-0.9,0.4c-0.6,0-1.2-0.5-1.2-1.1s0.5-1.1,1.2-1.1c0.4,0,0.7,0.2,0.9,0.4l0.1,0.2h1.5l1.6-0.8v20.9l0.2,0.4
		c4.3,2.7,8.7,3,12.6,0.8c4.1-2.3,9.9-2.4,13.3,2.5h-1.6c-0.3,0-0.5,0.2-0.5,0.5s0.2,0.5,0.5,0.5h5.1c0.3,0,0.5-0.2,0.5-0.5
		s-0.2-0.5-0.5-0.5h-1.6c3.5-5,9.3-4.6,13.3-2.5c3.6,1.8,7.8,1.6,12.6-0.8l0.3-0.4V104l1.6,0.8h1.5l0.1-0.2c0.2-0.3,0.6-0.4,0.9-0.4
		c0.6,0,1.2,0.5,1.2,1.1s-0.5,1.1-1.2,1.1c-0.4,0-0.7-0.2-0.9-0.4l-0.2-0.2H198v2.3h1.9l0.2-0.2c0.2-0.3,0.6-0.4,0.9-0.4
		c0.6,0,1.2,0.5,1.2,1.1s-0.5,1.1-1.2,1.1c-0.4,0-0.7-0.2-0.9-0.4l-0.2-0.2H198v2.3h1.9l0.2-0.2c0.2-0.3,0.6-0.4,0.9-0.4
		c0.6,0,1.2,0.5,1.2,1.1s-0.5,1.1-1.2,1.1c-0.4,0-0.7-0.2-0.9-0.4l-0.2-0.2H198v2.3h1.9l0.2-0.2c0.2-0.3,0.6-0.4,0.9-0.4
		c0.6,0,1.2,0.5,1.2,1.1s-0.5,1.1-1.2,1.1c-0.4,0-0.7-0.2-0.9-0.4l-0.2-0.2H198v2.3h1.9l0.2-0.2c0.2-0.3,0.6-0.4,0.9-0.4
		c0.6,0,1.2,0.5,1.2,1.1s-0.5,1.1-1.2,1.1c-0.4,0-0.7-0.2-0.9-0.4l-0.2-0.2H198v2.3h1.9l0.2-0.2c0.2-0.3,0.6-0.4,0.9-0.4
		c0.6,0,1.2,0.5,1.2,1.1s-0.5,1.1-1.2,1.1c-0.4,0-0.7-0.2-0.9-0.4l-0.2-0.2H198v2.3h1.9l0.2-0.2c0.2-0.3,0.6-0.4,0.9-0.4
		c0.6,0,1.2,0.5,1.2,1.1s-0.5,1.1-1.2,1.1c-0.4,0-0.7-0.2-0.9-0.4l-0.2-0.2h-1.6l-0.1,0.1c-2.5,2.2-5.3,3.2-8.7,3.2
		c-2.7,0-4.3-0.4-6-1.5c-3.1-2.1-7-2.1-10,0l-0.7,0.5l0.7,0.4c0.5,0.3,0.8,0.8,0.8,1.3c0,0.8-0.7,1.5-1.5,1.5h-6.3
		c-0.8,0-1.5-0.7-1.5-1.5c0-0.6,0.3-1,0.8-1.3l0.7-0.4l-0.7-0.5c-1.5-1-3.3-1.5-5-1.5s-3.5,0.5-5,1.5c-1.7,1.1-3.3,1.5-6,1.5
		c-3.4,0-6.2-1-8.7-3.2l-0.1-0.1h-1.6l-0.2,0.2c-0.2,0.3-0.6,0.4-0.9,0.4c-0.6,0-1.2-0.5-1.2-1.1s0.5-1.1,1.2-1.1
		c0.4,0,0.7,0.2,0.9,0.4l0.2,0.2h1.9v-2.3L139.7,122.2L139.7,122.2z"/>
	<ellipse class="st0" cx="131.7" cy="59.8" rx="0.6" ry="0.6"/>
	<circle class="st0" cx="162.4" cy="59.8" r="0.6"/>
	<path class="st0" d="M110.2,257.8c-0.3,0.3-0.5,0.8-0.5,1.3s0.2,0.9,0.5,1.3c0.3,0.3,0.8,0.5,1.3,0.5c0.8,0,1.5-0.3,2.2-1v-3.7
		l-1.6,0.6C111.1,257.1,110.6,257.5,110.2,257.8z"/>
	<path class="st0" d="M282.3,283.1h-2.5v8.9h2.6c1.4,0,2.5-0.4,3.3-1.2c0.8-0.8,1.2-1.9,1.2-3.2c0-1.4-0.4-2.5-1.2-3.3
		C284.8,283.5,283.7,283.1,282.3,283.1z"/>
	<path class="st0" d="M135.5,257.8c-0.3,0.3-0.5,0.8-0.5,1.3s0.2,0.9,0.5,1.3c0.3,0.3,0.8,0.5,1.3,0.5c0.8,0,1.5-0.3,2.2-1v-3.7
		l-1.6,0.6C136.4,257.1,135.8,257.5,135.5,257.8z"/>
	<path class="st0" d="M122.1,252.2v7.6c0.8,0.4,1.5,0.6,2.4,0.6c1.1,0,2.1-0.4,2.8-1.2c0.7-0.8,1.1-1.8,1.1-3.1
		c0-0.8-0.2-1.5-0.5-2.1s-0.8-1.1-1.4-1.4c-0.6-0.3-1.5-0.4-2.6-0.4L122.1,252.2L122.1,252.2z"/>
	<polygon class="st0" points="231.8,289 235.9,289 233.8,283.9 	"/>
</g>
</svg>
